M48
;DRILL file {KiCad (5.0.1)-3} date 2019/3/14 17:19:29
;FORMAT={-:-/ absolute / inch / decimal}
FMAT,2
INCH,TZ
T1C0.0394
T2C0.0591
T3C0.0669
%
G90
G05
M72
T1
X5.54Y-4.89
X5.64Y-4.89
X5.1745Y-4.5025
X5.2745Y-4.5025
X5.3745Y-4.5025
X5.17Y-3.97
X5.27Y-3.97
X5.37Y-3.97
T2
X6.42Y-3.98
X6.42Y-4.53
X4.8Y-4.
X4.8Y-4.45
T3
X4.7Y-4.35
X4.7Y-4.55
X4.9Y-4.35
X4.9Y-4.55
X6.32Y-3.88
X6.32Y-4.08
X6.52Y-3.88
X6.52Y-4.08
X6.32Y-4.43
X6.32Y-4.63
X6.52Y-4.43
X6.52Y-4.63
X4.7Y-3.9
X4.7Y-4.1
X4.9Y-3.9
X4.9Y-4.1
T0
M30
