G04 #@! TF.GenerationSoftware,KiCad,Pcbnew,(6.0.0-rc1-dev-1154-gcbd13c712)*
G04 #@! TF.CreationDate,2018-11-27T08:28:50+08:00*
G04 #@! TF.ProjectId,8330_EVA,38333330-5f45-4564-912e-6b696361645f,rev?*
G04 #@! TF.SameCoordinates,Original*
G04 #@! TF.FileFunction,Copper,L2,Bot*
G04 #@! TF.FilePolarity,Positive*
%FSLAX46Y46*%
G04 Gerber Fmt 4.6, Leading zero omitted, Abs format (unit mm)*
G04 Created by KiCad (PCBNEW (6.0.0-rc1-dev-1154-gcbd13c712)) date 2018/11/27 8:28:50*
%MOMM*%
%LPD*%
G01*
G04 APERTURE LIST*
G04 #@! TA.AperFunction,ComponentPad*
%ADD10R,0.840000X0.840000*%
G04 #@! TD*
G04 #@! TA.AperFunction,ComponentPad*
%ADD11C,0.840000*%
G04 #@! TD*
G04 #@! TA.AperFunction,ComponentPad*
%ADD12O,0.850000X1.850000*%
G04 #@! TD*
G04 #@! TA.AperFunction,SMDPad,CuDef*
%ADD13R,1.500000X5.080000*%
G04 #@! TD*
G04 #@! TA.AperFunction,ComponentPad*
%ADD14O,1.700000X1.700000*%
G04 #@! TD*
G04 #@! TA.AperFunction,ComponentPad*
%ADD15R,1.700000X1.700000*%
G04 #@! TD*
G04 #@! TA.AperFunction,SMDPad,CuDef*
%ADD16R,5.080000X1.500000*%
G04 #@! TD*
G04 #@! TA.AperFunction,ViaPad*
%ADD17C,0.800000*%
G04 #@! TD*
G04 #@! TA.AperFunction,Conductor*
%ADD18C,0.300000*%
G04 #@! TD*
G04 #@! TA.AperFunction,Conductor*
%ADD19C,0.250000*%
G04 #@! TD*
G04 #@! TA.AperFunction,Conductor*
%ADD20C,0.254000*%
G04 #@! TD*
G04 APERTURE END LIST*
D10*
G04 #@! TO.P,J1,1*
G04 #@! TO.N,/USB2SPI/VBUS*
X152400000Y-123825000D03*
D11*
G04 #@! TO.P,J1,2*
G04 #@! TO.N,/USB2SPI/USB_D-*
X153050000Y-124825000D03*
G04 #@! TO.P,J1,3*
G04 #@! TO.N,/USB2SPI/USB_D+*
X153700000Y-123825000D03*
G04 #@! TO.P,J1,4*
G04 #@! TO.N,Net-(J1-Pad4)*
X154350000Y-124825000D03*
G04 #@! TO.P,J1,5*
G04 #@! TO.N,Earth*
X155000000Y-123825000D03*
D12*
G04 #@! TO.P,J1,6*
X150125000Y-124045000D03*
X157275000Y-124045000D03*
G04 #@! TD*
D13*
G04 #@! TO.P,J2,2*
G04 #@! TO.N,Earth*
X129345000Y-59690000D03*
X120845000Y-59690000D03*
G04 #@! TD*
D14*
G04 #@! TO.P,J3,3*
G04 #@! TO.N,/VCA/VEE_-5V*
X113665000Y-76200000D03*
G04 #@! TO.P,J3,2*
G04 #@! TO.N,Earth*
X113665000Y-78740000D03*
D15*
G04 #@! TO.P,J3,1*
G04 #@! TO.N,/DAC/VCC_+5V*
X113665000Y-81280000D03*
G04 #@! TD*
D16*
G04 #@! TO.P,J4,2*
G04 #@! TO.N,Earth*
X198120000Y-83625000D03*
X198120000Y-75125000D03*
G04 #@! TD*
G04 #@! TO.P,J5,2*
G04 #@! TO.N,Earth*
X198120000Y-59885000D03*
X198120000Y-68385000D03*
G04 #@! TD*
D15*
G04 #@! TO.P,J6,1*
G04 #@! TO.N,Earth*
X139700000Y-58420000D03*
D14*
G04 #@! TO.P,J6,2*
G04 #@! TO.N,Net-(J6-Pad2)*
X142240000Y-58420000D03*
G04 #@! TO.P,J6,3*
G04 #@! TO.N,Net-(C25-Pad1)*
X144780000Y-58420000D03*
G04 #@! TD*
D17*
G04 #@! TO.N,Earth*
X137160000Y-82804000D03*
X142748000Y-82550000D03*
X147320000Y-82296000D03*
X135890000Y-91440000D03*
X139192000Y-91186000D03*
X136652000Y-64770000D03*
X139192000Y-64770000D03*
X143510000Y-65024000D03*
X145034000Y-69342000D03*
X129032000Y-67310000D03*
X140335000Y-83820000D03*
X147955000Y-84455000D03*
X121920000Y-85090000D03*
X124460000Y-85090000D03*
X127000000Y-85090000D03*
X137160000Y-76835000D03*
X149225000Y-76835000D03*
X116840000Y-67945000D03*
X119380000Y-67945000D03*
X121920000Y-67945000D03*
X138684000Y-94488000D03*
X145288000Y-95758000D03*
X123444000Y-95250000D03*
X142875000Y-111760000D03*
X142875000Y-113665000D03*
X142875000Y-104140000D03*
X133985000Y-104140000D03*
X140970000Y-104775000D03*
X154850000Y-97155000D03*
G04 #@! TO.N,/USB2SPI/VCCIO*
X139700000Y-115570000D03*
X160020000Y-111760000D03*
G04 #@! TO.N,/USB2SPI/VBUS*
X158115000Y-120015000D03*
G04 #@! TO.N,/USB2SPI/MPSSE_SCK*
X151765000Y-86360000D03*
X148590000Y-86360000D03*
G04 #@! TO.N,/DAC/VCC_+5V*
X131445000Y-69850000D03*
G04 #@! TO.N,Net-(J6-Pad2)*
X140716000Y-61976000D03*
X140716000Y-70612000D03*
G04 #@! TD*
D18*
G04 #@! TO.N,/USB2SPI/VCCIO*
X139700000Y-115570000D02*
X140335000Y-114935000D01*
X140335000Y-114935000D02*
X156845000Y-114935000D01*
X156845000Y-114935000D02*
X160020000Y-111760000D01*
G04 #@! TO.N,/USB2SPI/VBUS*
X155490000Y-120015000D02*
X158115000Y-120015000D01*
X152400000Y-123825000D02*
X152400000Y-123105000D01*
X152400000Y-123105000D02*
X155490000Y-120015000D01*
D19*
G04 #@! TO.N,/USB2SPI/MPSSE_SCK*
X151765000Y-86360000D02*
X148590000Y-86360000D01*
D18*
G04 #@! TO.N,/DAC/VCC_+5V*
X113665000Y-81280000D02*
X128905000Y-81280000D01*
X128905000Y-81280000D02*
X130175000Y-81280000D01*
X131445000Y-80010000D02*
X131445000Y-69850000D01*
X130175000Y-81280000D02*
X131445000Y-80010000D01*
G04 #@! TO.N,Net-(J6-Pad2)*
X140716000Y-61976000D02*
X140716000Y-70612000D01*
G04 #@! TD*
D20*
G04 #@! TO.N,Earth*
G36*
X203810000Y-128880000D02*
X107340000Y-128880000D01*
X107340000Y-124172000D01*
X149065000Y-124172000D01*
X149065000Y-124672000D01*
X149194288Y-125067977D01*
X149465269Y-125384336D01*
X149834938Y-125564540D01*
X149998000Y-125437257D01*
X149998000Y-124172000D01*
X150252000Y-124172000D01*
X150252000Y-125437257D01*
X150415062Y-125564540D01*
X150784731Y-125384336D01*
X151055712Y-125067977D01*
X151185000Y-124672000D01*
X151185000Y-124172000D01*
X150252000Y-124172000D01*
X149998000Y-124172000D01*
X149065000Y-124172000D01*
X107340000Y-124172000D01*
X107340000Y-123418000D01*
X149065000Y-123418000D01*
X149065000Y-123918000D01*
X149998000Y-123918000D01*
X149998000Y-122652743D01*
X150252000Y-122652743D01*
X150252000Y-123918000D01*
X151185000Y-123918000D01*
X151185000Y-123418000D01*
X151180756Y-123405000D01*
X151332560Y-123405000D01*
X151332560Y-124245000D01*
X151381843Y-124492765D01*
X151522191Y-124702809D01*
X151732235Y-124843157D01*
X151980000Y-124892440D01*
X151995000Y-124892440D01*
X151995000Y-125034853D01*
X152155614Y-125422610D01*
X152452390Y-125719386D01*
X152840147Y-125880000D01*
X153259853Y-125880000D01*
X153647610Y-125719386D01*
X153700000Y-125666996D01*
X153752390Y-125719386D01*
X154140147Y-125880000D01*
X154559853Y-125880000D01*
X154947610Y-125719386D01*
X155244386Y-125422610D01*
X155405000Y-125034853D01*
X155405000Y-124813541D01*
X155525095Y-124763796D01*
X155552308Y-124556913D01*
X155259660Y-124264265D01*
X155244386Y-124227390D01*
X154947610Y-123930614D01*
X154862449Y-123895339D01*
X154806253Y-123839143D01*
X154820395Y-123825000D01*
X155179605Y-123825000D01*
X155731913Y-124377308D01*
X155938796Y-124350095D01*
X155996557Y-124172000D01*
X156215000Y-124172000D01*
X156215000Y-124672000D01*
X156344288Y-125067977D01*
X156615269Y-125384336D01*
X156984938Y-125564540D01*
X157148000Y-125437257D01*
X157148000Y-124172000D01*
X157402000Y-124172000D01*
X157402000Y-125437257D01*
X157565062Y-125564540D01*
X157934731Y-125384336D01*
X158205712Y-125067977D01*
X158335000Y-124672000D01*
X158335000Y-124172000D01*
X157402000Y-124172000D01*
X157148000Y-124172000D01*
X156215000Y-124172000D01*
X155996557Y-124172000D01*
X156068279Y-123950863D01*
X156035127Y-123532469D01*
X155987713Y-123418000D01*
X156215000Y-123418000D01*
X156215000Y-123918000D01*
X157148000Y-123918000D01*
X157148000Y-122652743D01*
X157402000Y-122652743D01*
X157402000Y-123918000D01*
X158335000Y-123918000D01*
X158335000Y-123418000D01*
X158205712Y-123022023D01*
X157934731Y-122705664D01*
X157565062Y-122525460D01*
X157402000Y-122652743D01*
X157148000Y-122652743D01*
X156984938Y-122525460D01*
X156615269Y-122705664D01*
X156344288Y-123022023D01*
X156215000Y-123418000D01*
X155987713Y-123418000D01*
X155938796Y-123299905D01*
X155731913Y-123272692D01*
X155179605Y-123825000D01*
X154820395Y-123825000D01*
X154806253Y-123810858D01*
X154985858Y-123631253D01*
X155000000Y-123645395D01*
X155552308Y-123093087D01*
X155525095Y-122886204D01*
X155125863Y-122756721D01*
X154707469Y-122789873D01*
X154474905Y-122886204D01*
X154449132Y-123082136D01*
X154297610Y-122930614D01*
X153909853Y-122770000D01*
X153845157Y-122770000D01*
X155815158Y-120800000D01*
X157436289Y-120800000D01*
X157528720Y-120892431D01*
X157909126Y-121050000D01*
X158320874Y-121050000D01*
X158701280Y-120892431D01*
X158992431Y-120601280D01*
X159150000Y-120220874D01*
X159150000Y-119809126D01*
X158992431Y-119428720D01*
X158701280Y-119137569D01*
X158320874Y-118980000D01*
X157909126Y-118980000D01*
X157528720Y-119137569D01*
X157436289Y-119230000D01*
X155567312Y-119230000D01*
X155490000Y-119214622D01*
X155412688Y-119230000D01*
X155412684Y-119230000D01*
X155183708Y-119275546D01*
X154989591Y-119405251D01*
X154989589Y-119405253D01*
X154924047Y-119449047D01*
X154880253Y-119514589D01*
X151899590Y-122495253D01*
X151834048Y-122539047D01*
X151790254Y-122604589D01*
X151790251Y-122604592D01*
X151660546Y-122798709D01*
X151647692Y-122863334D01*
X151522191Y-122947191D01*
X151381843Y-123157235D01*
X151332560Y-123405000D01*
X151180756Y-123405000D01*
X151055712Y-123022023D01*
X150784731Y-122705664D01*
X150415062Y-122525460D01*
X150252000Y-122652743D01*
X149998000Y-122652743D01*
X149834938Y-122525460D01*
X149465269Y-122705664D01*
X149194288Y-123022023D01*
X149065000Y-123418000D01*
X107340000Y-123418000D01*
X107340000Y-115364126D01*
X138665000Y-115364126D01*
X138665000Y-115775874D01*
X138822569Y-116156280D01*
X139113720Y-116447431D01*
X139494126Y-116605000D01*
X139905874Y-116605000D01*
X140286280Y-116447431D01*
X140577431Y-116156280D01*
X140735000Y-115775874D01*
X140735000Y-115720000D01*
X156767688Y-115720000D01*
X156845000Y-115735378D01*
X156922312Y-115720000D01*
X156922316Y-115720000D01*
X157151292Y-115674454D01*
X157410953Y-115500953D01*
X157454749Y-115435408D01*
X160095158Y-112795000D01*
X160225874Y-112795000D01*
X160606280Y-112637431D01*
X160897431Y-112346280D01*
X161055000Y-111965874D01*
X161055000Y-111554126D01*
X160897431Y-111173720D01*
X160606280Y-110882569D01*
X160225874Y-110725000D01*
X159814126Y-110725000D01*
X159433720Y-110882569D01*
X159142569Y-111173720D01*
X158985000Y-111554126D01*
X158985000Y-111684842D01*
X156519843Y-114150000D01*
X140412312Y-114150000D01*
X140335000Y-114134622D01*
X140257688Y-114150000D01*
X140257684Y-114150000D01*
X140028708Y-114195546D01*
X139769047Y-114369047D01*
X139725251Y-114434592D01*
X139624843Y-114535000D01*
X139494126Y-114535000D01*
X139113720Y-114692569D01*
X138822569Y-114983720D01*
X138665000Y-115364126D01*
X107340000Y-115364126D01*
X107340000Y-86154126D01*
X147555000Y-86154126D01*
X147555000Y-86565874D01*
X147712569Y-86946280D01*
X148003720Y-87237431D01*
X148384126Y-87395000D01*
X148795874Y-87395000D01*
X149176280Y-87237431D01*
X149293711Y-87120000D01*
X151061289Y-87120000D01*
X151178720Y-87237431D01*
X151559126Y-87395000D01*
X151970874Y-87395000D01*
X152351280Y-87237431D01*
X152642431Y-86946280D01*
X152800000Y-86565874D01*
X152800000Y-86154126D01*
X152642431Y-85773720D01*
X152351280Y-85482569D01*
X151970874Y-85325000D01*
X151559126Y-85325000D01*
X151178720Y-85482569D01*
X151061289Y-85600000D01*
X149293711Y-85600000D01*
X149176280Y-85482569D01*
X148795874Y-85325000D01*
X148384126Y-85325000D01*
X148003720Y-85482569D01*
X147712569Y-85773720D01*
X147555000Y-86154126D01*
X107340000Y-86154126D01*
X107340000Y-83910750D01*
X194945000Y-83910750D01*
X194945000Y-84501309D01*
X195041673Y-84734698D01*
X195220301Y-84913327D01*
X195453690Y-85010000D01*
X197834250Y-85010000D01*
X197993000Y-84851250D01*
X197993000Y-83752000D01*
X198247000Y-83752000D01*
X198247000Y-84851250D01*
X198405750Y-85010000D01*
X200786310Y-85010000D01*
X201019699Y-84913327D01*
X201198327Y-84734698D01*
X201295000Y-84501309D01*
X201295000Y-83910750D01*
X201136250Y-83752000D01*
X198247000Y-83752000D01*
X197993000Y-83752000D01*
X195103750Y-83752000D01*
X194945000Y-83910750D01*
X107340000Y-83910750D01*
X107340000Y-80430000D01*
X112167560Y-80430000D01*
X112167560Y-82130000D01*
X112216843Y-82377765D01*
X112357191Y-82587809D01*
X112567235Y-82728157D01*
X112815000Y-82777440D01*
X114515000Y-82777440D01*
X114659532Y-82748691D01*
X194945000Y-82748691D01*
X194945000Y-83339250D01*
X195103750Y-83498000D01*
X197993000Y-83498000D01*
X197993000Y-82398750D01*
X198247000Y-82398750D01*
X198247000Y-83498000D01*
X201136250Y-83498000D01*
X201295000Y-83339250D01*
X201295000Y-82748691D01*
X201198327Y-82515302D01*
X201019699Y-82336673D01*
X200786310Y-82240000D01*
X198405750Y-82240000D01*
X198247000Y-82398750D01*
X197993000Y-82398750D01*
X197834250Y-82240000D01*
X195453690Y-82240000D01*
X195220301Y-82336673D01*
X195041673Y-82515302D01*
X194945000Y-82748691D01*
X114659532Y-82748691D01*
X114762765Y-82728157D01*
X114972809Y-82587809D01*
X115113157Y-82377765D01*
X115162440Y-82130000D01*
X115162440Y-82065000D01*
X130097688Y-82065000D01*
X130175000Y-82080378D01*
X130252312Y-82065000D01*
X130252316Y-82065000D01*
X130481292Y-82019454D01*
X130740953Y-81845953D01*
X130784749Y-81780408D01*
X131945411Y-80619747D01*
X132010953Y-80575953D01*
X132054747Y-80510411D01*
X132054749Y-80510409D01*
X132108476Y-80430000D01*
X132184454Y-80316292D01*
X132230000Y-80087316D01*
X132230000Y-80087312D01*
X132245378Y-80010001D01*
X132230000Y-79932690D01*
X132230000Y-75410750D01*
X194945000Y-75410750D01*
X194945000Y-76001309D01*
X195041673Y-76234698D01*
X195220301Y-76413327D01*
X195453690Y-76510000D01*
X197834250Y-76510000D01*
X197993000Y-76351250D01*
X197993000Y-75252000D01*
X198247000Y-75252000D01*
X198247000Y-76351250D01*
X198405750Y-76510000D01*
X200786310Y-76510000D01*
X201019699Y-76413327D01*
X201198327Y-76234698D01*
X201295000Y-76001309D01*
X201295000Y-75410750D01*
X201136250Y-75252000D01*
X198247000Y-75252000D01*
X197993000Y-75252000D01*
X195103750Y-75252000D01*
X194945000Y-75410750D01*
X132230000Y-75410750D01*
X132230000Y-74248691D01*
X194945000Y-74248691D01*
X194945000Y-74839250D01*
X195103750Y-74998000D01*
X197993000Y-74998000D01*
X197993000Y-73898750D01*
X198247000Y-73898750D01*
X198247000Y-74998000D01*
X201136250Y-74998000D01*
X201295000Y-74839250D01*
X201295000Y-74248691D01*
X201198327Y-74015302D01*
X201019699Y-73836673D01*
X200786310Y-73740000D01*
X198405750Y-73740000D01*
X198247000Y-73898750D01*
X197993000Y-73898750D01*
X197834250Y-73740000D01*
X195453690Y-73740000D01*
X195220301Y-73836673D01*
X195041673Y-74015302D01*
X194945000Y-74248691D01*
X132230000Y-74248691D01*
X132230000Y-70528711D01*
X132322431Y-70436280D01*
X132480000Y-70055874D01*
X132480000Y-69644126D01*
X132322431Y-69263720D01*
X132031280Y-68972569D01*
X131650874Y-68815000D01*
X131239126Y-68815000D01*
X130858720Y-68972569D01*
X130567569Y-69263720D01*
X130410000Y-69644126D01*
X130410000Y-70055874D01*
X130567569Y-70436280D01*
X130660001Y-70528712D01*
X130660000Y-79684842D01*
X129849843Y-80495000D01*
X115162440Y-80495000D01*
X115162440Y-80430000D01*
X115113157Y-80182235D01*
X114972809Y-79972191D01*
X114762765Y-79831843D01*
X114659292Y-79811261D01*
X114936645Y-79506924D01*
X115106476Y-79096890D01*
X114985155Y-78867000D01*
X113792000Y-78867000D01*
X113792000Y-78887000D01*
X113538000Y-78887000D01*
X113538000Y-78867000D01*
X112344845Y-78867000D01*
X112223524Y-79096890D01*
X112393355Y-79506924D01*
X112670708Y-79811261D01*
X112567235Y-79831843D01*
X112357191Y-79972191D01*
X112216843Y-80182235D01*
X112167560Y-80430000D01*
X107340000Y-80430000D01*
X107340000Y-76200000D01*
X112150908Y-76200000D01*
X112266161Y-76779418D01*
X112594375Y-77270625D01*
X112913478Y-77483843D01*
X112783642Y-77544817D01*
X112393355Y-77973076D01*
X112223524Y-78383110D01*
X112344845Y-78613000D01*
X113538000Y-78613000D01*
X113538000Y-78593000D01*
X113792000Y-78593000D01*
X113792000Y-78613000D01*
X114985155Y-78613000D01*
X115106476Y-78383110D01*
X114936645Y-77973076D01*
X114546358Y-77544817D01*
X114416522Y-77483843D01*
X114735625Y-77270625D01*
X115063839Y-76779418D01*
X115179092Y-76200000D01*
X115063839Y-75620582D01*
X114735625Y-75129375D01*
X114244418Y-74801161D01*
X113811256Y-74715000D01*
X113518744Y-74715000D01*
X113085582Y-74801161D01*
X112594375Y-75129375D01*
X112266161Y-75620582D01*
X112150908Y-76200000D01*
X107340000Y-76200000D01*
X107340000Y-59975750D01*
X119460000Y-59975750D01*
X119460000Y-62356310D01*
X119556673Y-62589699D01*
X119735302Y-62768327D01*
X119968691Y-62865000D01*
X120559250Y-62865000D01*
X120718000Y-62706250D01*
X120718000Y-59817000D01*
X120972000Y-59817000D01*
X120972000Y-62706250D01*
X121130750Y-62865000D01*
X121721309Y-62865000D01*
X121954698Y-62768327D01*
X122133327Y-62589699D01*
X122230000Y-62356310D01*
X122230000Y-59975750D01*
X127960000Y-59975750D01*
X127960000Y-62356310D01*
X128056673Y-62589699D01*
X128235302Y-62768327D01*
X128468691Y-62865000D01*
X129059250Y-62865000D01*
X129218000Y-62706250D01*
X129218000Y-59817000D01*
X129472000Y-59817000D01*
X129472000Y-62706250D01*
X129630750Y-62865000D01*
X130221309Y-62865000D01*
X130454698Y-62768327D01*
X130633327Y-62589699D01*
X130730000Y-62356310D01*
X130730000Y-61770126D01*
X139681000Y-61770126D01*
X139681000Y-62181874D01*
X139838569Y-62562280D01*
X139931000Y-62654711D01*
X139931001Y-69933288D01*
X139838569Y-70025720D01*
X139681000Y-70406126D01*
X139681000Y-70817874D01*
X139838569Y-71198280D01*
X140129720Y-71489431D01*
X140510126Y-71647000D01*
X140921874Y-71647000D01*
X141302280Y-71489431D01*
X141593431Y-71198280D01*
X141751000Y-70817874D01*
X141751000Y-70406126D01*
X141593431Y-70025720D01*
X141501000Y-69933289D01*
X141501000Y-68670750D01*
X194945000Y-68670750D01*
X194945000Y-69261309D01*
X195041673Y-69494698D01*
X195220301Y-69673327D01*
X195453690Y-69770000D01*
X197834250Y-69770000D01*
X197993000Y-69611250D01*
X197993000Y-68512000D01*
X198247000Y-68512000D01*
X198247000Y-69611250D01*
X198405750Y-69770000D01*
X200786310Y-69770000D01*
X201019699Y-69673327D01*
X201198327Y-69494698D01*
X201295000Y-69261309D01*
X201295000Y-68670750D01*
X201136250Y-68512000D01*
X198247000Y-68512000D01*
X197993000Y-68512000D01*
X195103750Y-68512000D01*
X194945000Y-68670750D01*
X141501000Y-68670750D01*
X141501000Y-67508691D01*
X194945000Y-67508691D01*
X194945000Y-68099250D01*
X195103750Y-68258000D01*
X197993000Y-68258000D01*
X197993000Y-67158750D01*
X198247000Y-67158750D01*
X198247000Y-68258000D01*
X201136250Y-68258000D01*
X201295000Y-68099250D01*
X201295000Y-67508691D01*
X201198327Y-67275302D01*
X201019699Y-67096673D01*
X200786310Y-67000000D01*
X198405750Y-67000000D01*
X198247000Y-67158750D01*
X197993000Y-67158750D01*
X197834250Y-67000000D01*
X195453690Y-67000000D01*
X195220301Y-67096673D01*
X195041673Y-67275302D01*
X194945000Y-67508691D01*
X141501000Y-67508691D01*
X141501000Y-62654711D01*
X141593431Y-62562280D01*
X141751000Y-62181874D01*
X141751000Y-61770126D01*
X141593431Y-61389720D01*
X141302280Y-61098569D01*
X140921874Y-60941000D01*
X140510126Y-60941000D01*
X140129720Y-61098569D01*
X139838569Y-61389720D01*
X139681000Y-61770126D01*
X130730000Y-61770126D01*
X130730000Y-60170750D01*
X194945000Y-60170750D01*
X194945000Y-60761309D01*
X195041673Y-60994698D01*
X195220301Y-61173327D01*
X195453690Y-61270000D01*
X197834250Y-61270000D01*
X197993000Y-61111250D01*
X197993000Y-60012000D01*
X198247000Y-60012000D01*
X198247000Y-61111250D01*
X198405750Y-61270000D01*
X200786310Y-61270000D01*
X201019699Y-61173327D01*
X201198327Y-60994698D01*
X201295000Y-60761309D01*
X201295000Y-60170750D01*
X201136250Y-60012000D01*
X198247000Y-60012000D01*
X197993000Y-60012000D01*
X195103750Y-60012000D01*
X194945000Y-60170750D01*
X130730000Y-60170750D01*
X130730000Y-59975750D01*
X130571250Y-59817000D01*
X129472000Y-59817000D01*
X129218000Y-59817000D01*
X128118750Y-59817000D01*
X127960000Y-59975750D01*
X122230000Y-59975750D01*
X122071250Y-59817000D01*
X120972000Y-59817000D01*
X120718000Y-59817000D01*
X119618750Y-59817000D01*
X119460000Y-59975750D01*
X107340000Y-59975750D01*
X107340000Y-57023690D01*
X119460000Y-57023690D01*
X119460000Y-59404250D01*
X119618750Y-59563000D01*
X120718000Y-59563000D01*
X120718000Y-56673750D01*
X120972000Y-56673750D01*
X120972000Y-59563000D01*
X122071250Y-59563000D01*
X122230000Y-59404250D01*
X122230000Y-57023690D01*
X127960000Y-57023690D01*
X127960000Y-59404250D01*
X128118750Y-59563000D01*
X129218000Y-59563000D01*
X129218000Y-56673750D01*
X129472000Y-56673750D01*
X129472000Y-59563000D01*
X130571250Y-59563000D01*
X130730000Y-59404250D01*
X130730000Y-58705750D01*
X138215000Y-58705750D01*
X138215000Y-59396309D01*
X138311673Y-59629698D01*
X138490301Y-59808327D01*
X138723690Y-59905000D01*
X139414250Y-59905000D01*
X139573000Y-59746250D01*
X139573000Y-58547000D01*
X138373750Y-58547000D01*
X138215000Y-58705750D01*
X130730000Y-58705750D01*
X130730000Y-57443691D01*
X138215000Y-57443691D01*
X138215000Y-58134250D01*
X138373750Y-58293000D01*
X139573000Y-58293000D01*
X139573000Y-57093750D01*
X139827000Y-57093750D01*
X139827000Y-58293000D01*
X139847000Y-58293000D01*
X139847000Y-58547000D01*
X139827000Y-58547000D01*
X139827000Y-59746250D01*
X139985750Y-59905000D01*
X140676310Y-59905000D01*
X140909699Y-59808327D01*
X141088327Y-59629698D01*
X141154904Y-59468967D01*
X141169375Y-59490625D01*
X141660582Y-59818839D01*
X142093744Y-59905000D01*
X142386256Y-59905000D01*
X142819418Y-59818839D01*
X143310625Y-59490625D01*
X143510000Y-59192239D01*
X143709375Y-59490625D01*
X144200582Y-59818839D01*
X144633744Y-59905000D01*
X144926256Y-59905000D01*
X145359418Y-59818839D01*
X145850625Y-59490625D01*
X146172642Y-59008691D01*
X194945000Y-59008691D01*
X194945000Y-59599250D01*
X195103750Y-59758000D01*
X197993000Y-59758000D01*
X197993000Y-58658750D01*
X198247000Y-58658750D01*
X198247000Y-59758000D01*
X201136250Y-59758000D01*
X201295000Y-59599250D01*
X201295000Y-59008691D01*
X201198327Y-58775302D01*
X201019699Y-58596673D01*
X200786310Y-58500000D01*
X198405750Y-58500000D01*
X198247000Y-58658750D01*
X197993000Y-58658750D01*
X197834250Y-58500000D01*
X195453690Y-58500000D01*
X195220301Y-58596673D01*
X195041673Y-58775302D01*
X194945000Y-59008691D01*
X146172642Y-59008691D01*
X146178839Y-58999418D01*
X146294092Y-58420000D01*
X146178839Y-57840582D01*
X145850625Y-57349375D01*
X145359418Y-57021161D01*
X144926256Y-56935000D01*
X144633744Y-56935000D01*
X144200582Y-57021161D01*
X143709375Y-57349375D01*
X143510000Y-57647761D01*
X143310625Y-57349375D01*
X142819418Y-57021161D01*
X142386256Y-56935000D01*
X142093744Y-56935000D01*
X141660582Y-57021161D01*
X141169375Y-57349375D01*
X141154904Y-57371033D01*
X141088327Y-57210302D01*
X140909699Y-57031673D01*
X140676310Y-56935000D01*
X139985750Y-56935000D01*
X139827000Y-57093750D01*
X139573000Y-57093750D01*
X139414250Y-56935000D01*
X138723690Y-56935000D01*
X138490301Y-57031673D01*
X138311673Y-57210302D01*
X138215000Y-57443691D01*
X130730000Y-57443691D01*
X130730000Y-57023690D01*
X130633327Y-56790301D01*
X130454698Y-56611673D01*
X130221309Y-56515000D01*
X129630750Y-56515000D01*
X129472000Y-56673750D01*
X129218000Y-56673750D01*
X129059250Y-56515000D01*
X128468691Y-56515000D01*
X128235302Y-56611673D01*
X128056673Y-56790301D01*
X127960000Y-57023690D01*
X122230000Y-57023690D01*
X122133327Y-56790301D01*
X121954698Y-56611673D01*
X121721309Y-56515000D01*
X121130750Y-56515000D01*
X120972000Y-56673750D01*
X120718000Y-56673750D01*
X120559250Y-56515000D01*
X119968691Y-56515000D01*
X119735302Y-56611673D01*
X119556673Y-56790301D01*
X119460000Y-57023690D01*
X107340000Y-57023690D01*
X107340000Y-54000000D01*
X203810001Y-54000000D01*
X203810000Y-128880000D01*
X203810000Y-128880000D01*
G37*
X203810000Y-128880000D02*
X107340000Y-128880000D01*
X107340000Y-124172000D01*
X149065000Y-124172000D01*
X149065000Y-124672000D01*
X149194288Y-125067977D01*
X149465269Y-125384336D01*
X149834938Y-125564540D01*
X149998000Y-125437257D01*
X149998000Y-124172000D01*
X150252000Y-124172000D01*
X150252000Y-125437257D01*
X150415062Y-125564540D01*
X150784731Y-125384336D01*
X151055712Y-125067977D01*
X151185000Y-124672000D01*
X151185000Y-124172000D01*
X150252000Y-124172000D01*
X149998000Y-124172000D01*
X149065000Y-124172000D01*
X107340000Y-124172000D01*
X107340000Y-123418000D01*
X149065000Y-123418000D01*
X149065000Y-123918000D01*
X149998000Y-123918000D01*
X149998000Y-122652743D01*
X150252000Y-122652743D01*
X150252000Y-123918000D01*
X151185000Y-123918000D01*
X151185000Y-123418000D01*
X151180756Y-123405000D01*
X151332560Y-123405000D01*
X151332560Y-124245000D01*
X151381843Y-124492765D01*
X151522191Y-124702809D01*
X151732235Y-124843157D01*
X151980000Y-124892440D01*
X151995000Y-124892440D01*
X151995000Y-125034853D01*
X152155614Y-125422610D01*
X152452390Y-125719386D01*
X152840147Y-125880000D01*
X153259853Y-125880000D01*
X153647610Y-125719386D01*
X153700000Y-125666996D01*
X153752390Y-125719386D01*
X154140147Y-125880000D01*
X154559853Y-125880000D01*
X154947610Y-125719386D01*
X155244386Y-125422610D01*
X155405000Y-125034853D01*
X155405000Y-124813541D01*
X155525095Y-124763796D01*
X155552308Y-124556913D01*
X155259660Y-124264265D01*
X155244386Y-124227390D01*
X154947610Y-123930614D01*
X154862449Y-123895339D01*
X154806253Y-123839143D01*
X154820395Y-123825000D01*
X155179605Y-123825000D01*
X155731913Y-124377308D01*
X155938796Y-124350095D01*
X155996557Y-124172000D01*
X156215000Y-124172000D01*
X156215000Y-124672000D01*
X156344288Y-125067977D01*
X156615269Y-125384336D01*
X156984938Y-125564540D01*
X157148000Y-125437257D01*
X157148000Y-124172000D01*
X157402000Y-124172000D01*
X157402000Y-125437257D01*
X157565062Y-125564540D01*
X157934731Y-125384336D01*
X158205712Y-125067977D01*
X158335000Y-124672000D01*
X158335000Y-124172000D01*
X157402000Y-124172000D01*
X157148000Y-124172000D01*
X156215000Y-124172000D01*
X155996557Y-124172000D01*
X156068279Y-123950863D01*
X156035127Y-123532469D01*
X155987713Y-123418000D01*
X156215000Y-123418000D01*
X156215000Y-123918000D01*
X157148000Y-123918000D01*
X157148000Y-122652743D01*
X157402000Y-122652743D01*
X157402000Y-123918000D01*
X158335000Y-123918000D01*
X158335000Y-123418000D01*
X158205712Y-123022023D01*
X157934731Y-122705664D01*
X157565062Y-122525460D01*
X157402000Y-122652743D01*
X157148000Y-122652743D01*
X156984938Y-122525460D01*
X156615269Y-122705664D01*
X156344288Y-123022023D01*
X156215000Y-123418000D01*
X155987713Y-123418000D01*
X155938796Y-123299905D01*
X155731913Y-123272692D01*
X155179605Y-123825000D01*
X154820395Y-123825000D01*
X154806253Y-123810858D01*
X154985858Y-123631253D01*
X155000000Y-123645395D01*
X155552308Y-123093087D01*
X155525095Y-122886204D01*
X155125863Y-122756721D01*
X154707469Y-122789873D01*
X154474905Y-122886204D01*
X154449132Y-123082136D01*
X154297610Y-122930614D01*
X153909853Y-122770000D01*
X153845157Y-122770000D01*
X155815158Y-120800000D01*
X157436289Y-120800000D01*
X157528720Y-120892431D01*
X157909126Y-121050000D01*
X158320874Y-121050000D01*
X158701280Y-120892431D01*
X158992431Y-120601280D01*
X159150000Y-120220874D01*
X159150000Y-119809126D01*
X158992431Y-119428720D01*
X158701280Y-119137569D01*
X158320874Y-118980000D01*
X157909126Y-118980000D01*
X157528720Y-119137569D01*
X157436289Y-119230000D01*
X155567312Y-119230000D01*
X155490000Y-119214622D01*
X155412688Y-119230000D01*
X155412684Y-119230000D01*
X155183708Y-119275546D01*
X154989591Y-119405251D01*
X154989589Y-119405253D01*
X154924047Y-119449047D01*
X154880253Y-119514589D01*
X151899590Y-122495253D01*
X151834048Y-122539047D01*
X151790254Y-122604589D01*
X151790251Y-122604592D01*
X151660546Y-122798709D01*
X151647692Y-122863334D01*
X151522191Y-122947191D01*
X151381843Y-123157235D01*
X151332560Y-123405000D01*
X151180756Y-123405000D01*
X151055712Y-123022023D01*
X150784731Y-122705664D01*
X150415062Y-122525460D01*
X150252000Y-122652743D01*
X149998000Y-122652743D01*
X149834938Y-122525460D01*
X149465269Y-122705664D01*
X149194288Y-123022023D01*
X149065000Y-123418000D01*
X107340000Y-123418000D01*
X107340000Y-115364126D01*
X138665000Y-115364126D01*
X138665000Y-115775874D01*
X138822569Y-116156280D01*
X139113720Y-116447431D01*
X139494126Y-116605000D01*
X139905874Y-116605000D01*
X140286280Y-116447431D01*
X140577431Y-116156280D01*
X140735000Y-115775874D01*
X140735000Y-115720000D01*
X156767688Y-115720000D01*
X156845000Y-115735378D01*
X156922312Y-115720000D01*
X156922316Y-115720000D01*
X157151292Y-115674454D01*
X157410953Y-115500953D01*
X157454749Y-115435408D01*
X160095158Y-112795000D01*
X160225874Y-112795000D01*
X160606280Y-112637431D01*
X160897431Y-112346280D01*
X161055000Y-111965874D01*
X161055000Y-111554126D01*
X160897431Y-111173720D01*
X160606280Y-110882569D01*
X160225874Y-110725000D01*
X159814126Y-110725000D01*
X159433720Y-110882569D01*
X159142569Y-111173720D01*
X158985000Y-111554126D01*
X158985000Y-111684842D01*
X156519843Y-114150000D01*
X140412312Y-114150000D01*
X140335000Y-114134622D01*
X140257688Y-114150000D01*
X140257684Y-114150000D01*
X140028708Y-114195546D01*
X139769047Y-114369047D01*
X139725251Y-114434592D01*
X139624843Y-114535000D01*
X139494126Y-114535000D01*
X139113720Y-114692569D01*
X138822569Y-114983720D01*
X138665000Y-115364126D01*
X107340000Y-115364126D01*
X107340000Y-86154126D01*
X147555000Y-86154126D01*
X147555000Y-86565874D01*
X147712569Y-86946280D01*
X148003720Y-87237431D01*
X148384126Y-87395000D01*
X148795874Y-87395000D01*
X149176280Y-87237431D01*
X149293711Y-87120000D01*
X151061289Y-87120000D01*
X151178720Y-87237431D01*
X151559126Y-87395000D01*
X151970874Y-87395000D01*
X152351280Y-87237431D01*
X152642431Y-86946280D01*
X152800000Y-86565874D01*
X152800000Y-86154126D01*
X152642431Y-85773720D01*
X152351280Y-85482569D01*
X151970874Y-85325000D01*
X151559126Y-85325000D01*
X151178720Y-85482569D01*
X151061289Y-85600000D01*
X149293711Y-85600000D01*
X149176280Y-85482569D01*
X148795874Y-85325000D01*
X148384126Y-85325000D01*
X148003720Y-85482569D01*
X147712569Y-85773720D01*
X147555000Y-86154126D01*
X107340000Y-86154126D01*
X107340000Y-83910750D01*
X194945000Y-83910750D01*
X194945000Y-84501309D01*
X195041673Y-84734698D01*
X195220301Y-84913327D01*
X195453690Y-85010000D01*
X197834250Y-85010000D01*
X197993000Y-84851250D01*
X197993000Y-83752000D01*
X198247000Y-83752000D01*
X198247000Y-84851250D01*
X198405750Y-85010000D01*
X200786310Y-85010000D01*
X201019699Y-84913327D01*
X201198327Y-84734698D01*
X201295000Y-84501309D01*
X201295000Y-83910750D01*
X201136250Y-83752000D01*
X198247000Y-83752000D01*
X197993000Y-83752000D01*
X195103750Y-83752000D01*
X194945000Y-83910750D01*
X107340000Y-83910750D01*
X107340000Y-80430000D01*
X112167560Y-80430000D01*
X112167560Y-82130000D01*
X112216843Y-82377765D01*
X112357191Y-82587809D01*
X112567235Y-82728157D01*
X112815000Y-82777440D01*
X114515000Y-82777440D01*
X114659532Y-82748691D01*
X194945000Y-82748691D01*
X194945000Y-83339250D01*
X195103750Y-83498000D01*
X197993000Y-83498000D01*
X197993000Y-82398750D01*
X198247000Y-82398750D01*
X198247000Y-83498000D01*
X201136250Y-83498000D01*
X201295000Y-83339250D01*
X201295000Y-82748691D01*
X201198327Y-82515302D01*
X201019699Y-82336673D01*
X200786310Y-82240000D01*
X198405750Y-82240000D01*
X198247000Y-82398750D01*
X197993000Y-82398750D01*
X197834250Y-82240000D01*
X195453690Y-82240000D01*
X195220301Y-82336673D01*
X195041673Y-82515302D01*
X194945000Y-82748691D01*
X114659532Y-82748691D01*
X114762765Y-82728157D01*
X114972809Y-82587809D01*
X115113157Y-82377765D01*
X115162440Y-82130000D01*
X115162440Y-82065000D01*
X130097688Y-82065000D01*
X130175000Y-82080378D01*
X130252312Y-82065000D01*
X130252316Y-82065000D01*
X130481292Y-82019454D01*
X130740953Y-81845953D01*
X130784749Y-81780408D01*
X131945411Y-80619747D01*
X132010953Y-80575953D01*
X132054747Y-80510411D01*
X132054749Y-80510409D01*
X132108476Y-80430000D01*
X132184454Y-80316292D01*
X132230000Y-80087316D01*
X132230000Y-80087312D01*
X132245378Y-80010001D01*
X132230000Y-79932690D01*
X132230000Y-75410750D01*
X194945000Y-75410750D01*
X194945000Y-76001309D01*
X195041673Y-76234698D01*
X195220301Y-76413327D01*
X195453690Y-76510000D01*
X197834250Y-76510000D01*
X197993000Y-76351250D01*
X197993000Y-75252000D01*
X198247000Y-75252000D01*
X198247000Y-76351250D01*
X198405750Y-76510000D01*
X200786310Y-76510000D01*
X201019699Y-76413327D01*
X201198327Y-76234698D01*
X201295000Y-76001309D01*
X201295000Y-75410750D01*
X201136250Y-75252000D01*
X198247000Y-75252000D01*
X197993000Y-75252000D01*
X195103750Y-75252000D01*
X194945000Y-75410750D01*
X132230000Y-75410750D01*
X132230000Y-74248691D01*
X194945000Y-74248691D01*
X194945000Y-74839250D01*
X195103750Y-74998000D01*
X197993000Y-74998000D01*
X197993000Y-73898750D01*
X198247000Y-73898750D01*
X198247000Y-74998000D01*
X201136250Y-74998000D01*
X201295000Y-74839250D01*
X201295000Y-74248691D01*
X201198327Y-74015302D01*
X201019699Y-73836673D01*
X200786310Y-73740000D01*
X198405750Y-73740000D01*
X198247000Y-73898750D01*
X197993000Y-73898750D01*
X197834250Y-73740000D01*
X195453690Y-73740000D01*
X195220301Y-73836673D01*
X195041673Y-74015302D01*
X194945000Y-74248691D01*
X132230000Y-74248691D01*
X132230000Y-70528711D01*
X132322431Y-70436280D01*
X132480000Y-70055874D01*
X132480000Y-69644126D01*
X132322431Y-69263720D01*
X132031280Y-68972569D01*
X131650874Y-68815000D01*
X131239126Y-68815000D01*
X130858720Y-68972569D01*
X130567569Y-69263720D01*
X130410000Y-69644126D01*
X130410000Y-70055874D01*
X130567569Y-70436280D01*
X130660001Y-70528712D01*
X130660000Y-79684842D01*
X129849843Y-80495000D01*
X115162440Y-80495000D01*
X115162440Y-80430000D01*
X115113157Y-80182235D01*
X114972809Y-79972191D01*
X114762765Y-79831843D01*
X114659292Y-79811261D01*
X114936645Y-79506924D01*
X115106476Y-79096890D01*
X114985155Y-78867000D01*
X113792000Y-78867000D01*
X113792000Y-78887000D01*
X113538000Y-78887000D01*
X113538000Y-78867000D01*
X112344845Y-78867000D01*
X112223524Y-79096890D01*
X112393355Y-79506924D01*
X112670708Y-79811261D01*
X112567235Y-79831843D01*
X112357191Y-79972191D01*
X112216843Y-80182235D01*
X112167560Y-80430000D01*
X107340000Y-80430000D01*
X107340000Y-76200000D01*
X112150908Y-76200000D01*
X112266161Y-76779418D01*
X112594375Y-77270625D01*
X112913478Y-77483843D01*
X112783642Y-77544817D01*
X112393355Y-77973076D01*
X112223524Y-78383110D01*
X112344845Y-78613000D01*
X113538000Y-78613000D01*
X113538000Y-78593000D01*
X113792000Y-78593000D01*
X113792000Y-78613000D01*
X114985155Y-78613000D01*
X115106476Y-78383110D01*
X114936645Y-77973076D01*
X114546358Y-77544817D01*
X114416522Y-77483843D01*
X114735625Y-77270625D01*
X115063839Y-76779418D01*
X115179092Y-76200000D01*
X115063839Y-75620582D01*
X114735625Y-75129375D01*
X114244418Y-74801161D01*
X113811256Y-74715000D01*
X113518744Y-74715000D01*
X113085582Y-74801161D01*
X112594375Y-75129375D01*
X112266161Y-75620582D01*
X112150908Y-76200000D01*
X107340000Y-76200000D01*
X107340000Y-59975750D01*
X119460000Y-59975750D01*
X119460000Y-62356310D01*
X119556673Y-62589699D01*
X119735302Y-62768327D01*
X119968691Y-62865000D01*
X120559250Y-62865000D01*
X120718000Y-62706250D01*
X120718000Y-59817000D01*
X120972000Y-59817000D01*
X120972000Y-62706250D01*
X121130750Y-62865000D01*
X121721309Y-62865000D01*
X121954698Y-62768327D01*
X122133327Y-62589699D01*
X122230000Y-62356310D01*
X122230000Y-59975750D01*
X127960000Y-59975750D01*
X127960000Y-62356310D01*
X128056673Y-62589699D01*
X128235302Y-62768327D01*
X128468691Y-62865000D01*
X129059250Y-62865000D01*
X129218000Y-62706250D01*
X129218000Y-59817000D01*
X129472000Y-59817000D01*
X129472000Y-62706250D01*
X129630750Y-62865000D01*
X130221309Y-62865000D01*
X130454698Y-62768327D01*
X130633327Y-62589699D01*
X130730000Y-62356310D01*
X130730000Y-61770126D01*
X139681000Y-61770126D01*
X139681000Y-62181874D01*
X139838569Y-62562280D01*
X139931000Y-62654711D01*
X139931001Y-69933288D01*
X139838569Y-70025720D01*
X139681000Y-70406126D01*
X139681000Y-70817874D01*
X139838569Y-71198280D01*
X140129720Y-71489431D01*
X140510126Y-71647000D01*
X140921874Y-71647000D01*
X141302280Y-71489431D01*
X141593431Y-71198280D01*
X141751000Y-70817874D01*
X141751000Y-70406126D01*
X141593431Y-70025720D01*
X141501000Y-69933289D01*
X141501000Y-68670750D01*
X194945000Y-68670750D01*
X194945000Y-69261309D01*
X195041673Y-69494698D01*
X195220301Y-69673327D01*
X195453690Y-69770000D01*
X197834250Y-69770000D01*
X197993000Y-69611250D01*
X197993000Y-68512000D01*
X198247000Y-68512000D01*
X198247000Y-69611250D01*
X198405750Y-69770000D01*
X200786310Y-69770000D01*
X201019699Y-69673327D01*
X201198327Y-69494698D01*
X201295000Y-69261309D01*
X201295000Y-68670750D01*
X201136250Y-68512000D01*
X198247000Y-68512000D01*
X197993000Y-68512000D01*
X195103750Y-68512000D01*
X194945000Y-68670750D01*
X141501000Y-68670750D01*
X141501000Y-67508691D01*
X194945000Y-67508691D01*
X194945000Y-68099250D01*
X195103750Y-68258000D01*
X197993000Y-68258000D01*
X197993000Y-67158750D01*
X198247000Y-67158750D01*
X198247000Y-68258000D01*
X201136250Y-68258000D01*
X201295000Y-68099250D01*
X201295000Y-67508691D01*
X201198327Y-67275302D01*
X201019699Y-67096673D01*
X200786310Y-67000000D01*
X198405750Y-67000000D01*
X198247000Y-67158750D01*
X197993000Y-67158750D01*
X197834250Y-67000000D01*
X195453690Y-67000000D01*
X195220301Y-67096673D01*
X195041673Y-67275302D01*
X194945000Y-67508691D01*
X141501000Y-67508691D01*
X141501000Y-62654711D01*
X141593431Y-62562280D01*
X141751000Y-62181874D01*
X141751000Y-61770126D01*
X141593431Y-61389720D01*
X141302280Y-61098569D01*
X140921874Y-60941000D01*
X140510126Y-60941000D01*
X140129720Y-61098569D01*
X139838569Y-61389720D01*
X139681000Y-61770126D01*
X130730000Y-61770126D01*
X130730000Y-60170750D01*
X194945000Y-60170750D01*
X194945000Y-60761309D01*
X195041673Y-60994698D01*
X195220301Y-61173327D01*
X195453690Y-61270000D01*
X197834250Y-61270000D01*
X197993000Y-61111250D01*
X197993000Y-60012000D01*
X198247000Y-60012000D01*
X198247000Y-61111250D01*
X198405750Y-61270000D01*
X200786310Y-61270000D01*
X201019699Y-61173327D01*
X201198327Y-60994698D01*
X201295000Y-60761309D01*
X201295000Y-60170750D01*
X201136250Y-60012000D01*
X198247000Y-60012000D01*
X197993000Y-60012000D01*
X195103750Y-60012000D01*
X194945000Y-60170750D01*
X130730000Y-60170750D01*
X130730000Y-59975750D01*
X130571250Y-59817000D01*
X129472000Y-59817000D01*
X129218000Y-59817000D01*
X128118750Y-59817000D01*
X127960000Y-59975750D01*
X122230000Y-59975750D01*
X122071250Y-59817000D01*
X120972000Y-59817000D01*
X120718000Y-59817000D01*
X119618750Y-59817000D01*
X119460000Y-59975750D01*
X107340000Y-59975750D01*
X107340000Y-57023690D01*
X119460000Y-57023690D01*
X119460000Y-59404250D01*
X119618750Y-59563000D01*
X120718000Y-59563000D01*
X120718000Y-56673750D01*
X120972000Y-56673750D01*
X120972000Y-59563000D01*
X122071250Y-59563000D01*
X122230000Y-59404250D01*
X122230000Y-57023690D01*
X127960000Y-57023690D01*
X127960000Y-59404250D01*
X128118750Y-59563000D01*
X129218000Y-59563000D01*
X129218000Y-56673750D01*
X129472000Y-56673750D01*
X129472000Y-59563000D01*
X130571250Y-59563000D01*
X130730000Y-59404250D01*
X130730000Y-58705750D01*
X138215000Y-58705750D01*
X138215000Y-59396309D01*
X138311673Y-59629698D01*
X138490301Y-59808327D01*
X138723690Y-59905000D01*
X139414250Y-59905000D01*
X139573000Y-59746250D01*
X139573000Y-58547000D01*
X138373750Y-58547000D01*
X138215000Y-58705750D01*
X130730000Y-58705750D01*
X130730000Y-57443691D01*
X138215000Y-57443691D01*
X138215000Y-58134250D01*
X138373750Y-58293000D01*
X139573000Y-58293000D01*
X139573000Y-57093750D01*
X139827000Y-57093750D01*
X139827000Y-58293000D01*
X139847000Y-58293000D01*
X139847000Y-58547000D01*
X139827000Y-58547000D01*
X139827000Y-59746250D01*
X139985750Y-59905000D01*
X140676310Y-59905000D01*
X140909699Y-59808327D01*
X141088327Y-59629698D01*
X141154904Y-59468967D01*
X141169375Y-59490625D01*
X141660582Y-59818839D01*
X142093744Y-59905000D01*
X142386256Y-59905000D01*
X142819418Y-59818839D01*
X143310625Y-59490625D01*
X143510000Y-59192239D01*
X143709375Y-59490625D01*
X144200582Y-59818839D01*
X144633744Y-59905000D01*
X144926256Y-59905000D01*
X145359418Y-59818839D01*
X145850625Y-59490625D01*
X146172642Y-59008691D01*
X194945000Y-59008691D01*
X194945000Y-59599250D01*
X195103750Y-59758000D01*
X197993000Y-59758000D01*
X197993000Y-58658750D01*
X198247000Y-58658750D01*
X198247000Y-59758000D01*
X201136250Y-59758000D01*
X201295000Y-59599250D01*
X201295000Y-59008691D01*
X201198327Y-58775302D01*
X201019699Y-58596673D01*
X200786310Y-58500000D01*
X198405750Y-58500000D01*
X198247000Y-58658750D01*
X197993000Y-58658750D01*
X197834250Y-58500000D01*
X195453690Y-58500000D01*
X195220301Y-58596673D01*
X195041673Y-58775302D01*
X194945000Y-59008691D01*
X146172642Y-59008691D01*
X146178839Y-58999418D01*
X146294092Y-58420000D01*
X146178839Y-57840582D01*
X145850625Y-57349375D01*
X145359418Y-57021161D01*
X144926256Y-56935000D01*
X144633744Y-56935000D01*
X144200582Y-57021161D01*
X143709375Y-57349375D01*
X143510000Y-57647761D01*
X143310625Y-57349375D01*
X142819418Y-57021161D01*
X142386256Y-56935000D01*
X142093744Y-56935000D01*
X141660582Y-57021161D01*
X141169375Y-57349375D01*
X141154904Y-57371033D01*
X141088327Y-57210302D01*
X140909699Y-57031673D01*
X140676310Y-56935000D01*
X139985750Y-56935000D01*
X139827000Y-57093750D01*
X139573000Y-57093750D01*
X139414250Y-56935000D01*
X138723690Y-56935000D01*
X138490301Y-57031673D01*
X138311673Y-57210302D01*
X138215000Y-57443691D01*
X130730000Y-57443691D01*
X130730000Y-57023690D01*
X130633327Y-56790301D01*
X130454698Y-56611673D01*
X130221309Y-56515000D01*
X129630750Y-56515000D01*
X129472000Y-56673750D01*
X129218000Y-56673750D01*
X129059250Y-56515000D01*
X128468691Y-56515000D01*
X128235302Y-56611673D01*
X128056673Y-56790301D01*
X127960000Y-57023690D01*
X122230000Y-57023690D01*
X122133327Y-56790301D01*
X121954698Y-56611673D01*
X121721309Y-56515000D01*
X121130750Y-56515000D01*
X120972000Y-56673750D01*
X120718000Y-56673750D01*
X120559250Y-56515000D01*
X119968691Y-56515000D01*
X119735302Y-56611673D01*
X119556673Y-56790301D01*
X119460000Y-57023690D01*
X107340000Y-57023690D01*
X107340000Y-54000000D01*
X203810001Y-54000000D01*
X203810000Y-128880000D01*
G04 #@! TD*
M02*
