M48
;DRILL file {KiCad (6.0.0-rc1-dev-1154-gcbd13c712)} date 2018/11/28 14:30:42
;FORMAT={-:-/ absolute / inch / decimal}
FMAT,2
INCH
T1C0.0157
T2C0.0394
T3C0.1260
%
G90
G05
M72
T1
X4.6Y-2.675
X4.7Y-2.675
X4.8Y-2.675
X4.8Y-3.35
X4.86Y-3.75
X4.9Y-3.35
X5.0Y-3.35
X5.08Y-2.65
X5.175Y-2.75
X5.275Y-4.1
X5.35Y-3.6
X5.38Y-2.55
X5.4Y-3.025
X5.4Y-3.26
X5.46Y-3.72
X5.48Y-2.55
X5.48Y-3.59
X5.5Y-4.55
X5.525Y-3.3
X5.54Y-2.44
X5.54Y-2.78
X5.55Y-4.125
X5.62Y-3.25
X5.625Y-4.1
X5.625Y-4.4
X5.625Y-4.475
X5.65Y-2.56
X5.71Y-2.73
X5.72Y-3.77
X5.8Y-3.24
X5.825Y-3.325
X5.85Y-3.4
X5.875Y-3.025
X5.975Y-3.4
X6.0965Y-3.825
X6.3Y-4.4
T2
X4.475Y-3.0
X4.475Y-3.1
X4.475Y-3.2
X5.5Y-2.3
X5.6Y-2.3
X5.7Y-2.3
T3
X4.425Y-4.8
X4.425Y-2.1
X7.7Y-2.1
X7.7Y-4.8
T0
M30
