G04 #@! TF.GenerationSoftware,KiCad,Pcbnew,(6.0.0-rc1-dev-1154-gcbd13c712)*
G04 #@! TF.CreationDate,2018-11-28T14:30:40+08:00*
G04 #@! TF.ProjectId,8330_EVA,38333330-5f45-4564-912e-6b696361645f,rev?*
G04 #@! TF.SameCoordinates,Original*
G04 #@! TF.FileFunction,Soldermask,Bot*
G04 #@! TF.FilePolarity,Negative*
%FSLAX46Y46*%
G04 Gerber Fmt 4.6, Leading zero omitted, Abs format (unit mm)*
G04 Created by KiCad (PCBNEW (6.0.0-rc1-dev-1154-gcbd13c712)) date 2018/11/28 14:30:40*
%MOMM*%
%LPD*%
G01*
G04 APERTURE LIST*
%ADD10C,0.100000*%
G04 APERTURE END LIST*
D10*
G36*
X196136202Y-119123781D02*
X196411606Y-119178562D01*
X196930455Y-119393476D01*
X197394259Y-119703380D01*
X197397410Y-119705486D01*
X197794514Y-120102590D01*
X197794516Y-120102593D01*
X198106524Y-120569545D01*
X198321438Y-121088394D01*
X198431000Y-121639201D01*
X198431000Y-122200799D01*
X198321438Y-122751606D01*
X198106524Y-123270455D01*
X197874309Y-123617988D01*
X197794514Y-123737410D01*
X197397410Y-124134514D01*
X197397407Y-124134516D01*
X196930455Y-124446524D01*
X196411606Y-124661438D01*
X195860800Y-124771000D01*
X195299200Y-124771000D01*
X194748394Y-124661438D01*
X194229545Y-124446524D01*
X193762593Y-124134516D01*
X193762590Y-124134514D01*
X193365486Y-123737410D01*
X193285691Y-123617988D01*
X193053476Y-123270455D01*
X192838562Y-122751606D01*
X192729000Y-122200799D01*
X192729000Y-121639201D01*
X192838562Y-121088394D01*
X193053476Y-120569545D01*
X193365484Y-120102593D01*
X193365486Y-120102590D01*
X193762590Y-119705486D01*
X193765741Y-119703380D01*
X194229545Y-119393476D01*
X194748394Y-119178562D01*
X195023798Y-119123781D01*
X195299200Y-119069000D01*
X195860800Y-119069000D01*
X196136202Y-119123781D01*
X196136202Y-119123781D01*
G37*
G36*
X112951202Y-119123781D02*
X113226606Y-119178562D01*
X113745455Y-119393476D01*
X114209259Y-119703380D01*
X114212410Y-119705486D01*
X114609514Y-120102590D01*
X114609516Y-120102593D01*
X114921524Y-120569545D01*
X115136438Y-121088394D01*
X115246000Y-121639201D01*
X115246000Y-122200799D01*
X115136438Y-122751606D01*
X114921524Y-123270455D01*
X114689309Y-123617988D01*
X114609514Y-123737410D01*
X114212410Y-124134514D01*
X114212407Y-124134516D01*
X113745455Y-124446524D01*
X113226606Y-124661438D01*
X112675800Y-124771000D01*
X112114200Y-124771000D01*
X111563394Y-124661438D01*
X111044545Y-124446524D01*
X110577593Y-124134516D01*
X110577590Y-124134514D01*
X110180486Y-123737410D01*
X110100691Y-123617988D01*
X109868476Y-123270455D01*
X109653562Y-122751606D01*
X109544000Y-122200799D01*
X109544000Y-121639201D01*
X109653562Y-121088394D01*
X109868476Y-120569545D01*
X110180484Y-120102593D01*
X110180486Y-120102590D01*
X110577590Y-119705486D01*
X110580741Y-119703380D01*
X111044545Y-119393476D01*
X111563394Y-119178562D01*
X111838798Y-119123781D01*
X112114200Y-119069000D01*
X112675800Y-119069000D01*
X112951202Y-119123781D01*
X112951202Y-119123781D01*
G37*
G36*
X150360721Y-122660174D02*
X150460995Y-122701709D01*
X150551245Y-122762012D01*
X150627988Y-122838755D01*
X150688291Y-122929005D01*
X150729826Y-123029279D01*
X150751000Y-123135730D01*
X150751000Y-123244270D01*
X150729826Y-123350721D01*
X150688291Y-123450995D01*
X150627988Y-123541245D01*
X150551245Y-123617988D01*
X150460995Y-123678291D01*
X150360721Y-123719826D01*
X150254270Y-123741000D01*
X150145730Y-123741000D01*
X150039279Y-123719826D01*
X149939005Y-123678291D01*
X149848755Y-123617988D01*
X149772012Y-123541245D01*
X149711709Y-123450995D01*
X149670174Y-123350721D01*
X149649000Y-123244270D01*
X149649000Y-123135730D01*
X149670174Y-123029279D01*
X149711709Y-122929005D01*
X149772012Y-122838755D01*
X149848755Y-122762012D01*
X149939005Y-122701709D01*
X150039279Y-122660174D01*
X150145730Y-122639000D01*
X150254270Y-122639000D01*
X150360721Y-122660174D01*
X150360721Y-122660174D01*
G37*
G36*
X154760721Y-122660174D02*
X154860995Y-122701709D01*
X154951245Y-122762012D01*
X155027988Y-122838755D01*
X155088291Y-122929005D01*
X155129826Y-123029279D01*
X155151000Y-123135730D01*
X155151000Y-123244270D01*
X155129826Y-123350721D01*
X155088291Y-123450995D01*
X155027988Y-123541245D01*
X154951245Y-123617988D01*
X154860995Y-123678291D01*
X154760721Y-123719826D01*
X154654270Y-123741000D01*
X154545730Y-123741000D01*
X154439279Y-123719826D01*
X154339005Y-123678291D01*
X154248755Y-123617988D01*
X154172012Y-123541245D01*
X154111709Y-123450995D01*
X154070174Y-123350721D01*
X154049000Y-123244270D01*
X154049000Y-123135730D01*
X154070174Y-123029279D01*
X154111709Y-122929005D01*
X154172012Y-122838755D01*
X154248755Y-122762012D01*
X154339005Y-122701709D01*
X154439279Y-122660174D01*
X154545730Y-122639000D01*
X154654270Y-122639000D01*
X154760721Y-122660174D01*
X154760721Y-122660174D01*
G37*
G36*
X200457000Y-86676440D02*
X195275000Y-86676440D01*
X195275000Y-85074440D01*
X200457000Y-85074440D01*
X200457000Y-86676440D01*
X200457000Y-86676440D01*
G37*
G36*
X114566000Y-82181000D02*
X112764000Y-82181000D01*
X112764000Y-80379000D01*
X114566000Y-80379000D01*
X114566000Y-82181000D01*
X114566000Y-82181000D01*
G37*
G36*
X113775443Y-77845519D02*
X113841627Y-77852037D01*
X113954853Y-77886384D01*
X114011467Y-77903557D01*
X114150087Y-77977652D01*
X114167991Y-77987222D01*
X114203729Y-78016552D01*
X114305186Y-78099814D01*
X114368070Y-78176440D01*
X114417778Y-78237009D01*
X114417779Y-78237011D01*
X114501443Y-78393533D01*
X114501443Y-78393534D01*
X114552963Y-78563373D01*
X114570359Y-78740000D01*
X114552963Y-78916627D01*
X114518616Y-79029853D01*
X114501443Y-79086467D01*
X114427348Y-79225087D01*
X114417778Y-79242991D01*
X114388448Y-79278729D01*
X114305186Y-79380186D01*
X114203729Y-79463448D01*
X114167991Y-79492778D01*
X114167989Y-79492779D01*
X114011467Y-79576443D01*
X113954853Y-79593616D01*
X113841627Y-79627963D01*
X113775442Y-79634482D01*
X113709260Y-79641000D01*
X113620740Y-79641000D01*
X113554558Y-79634482D01*
X113488373Y-79627963D01*
X113375147Y-79593616D01*
X113318533Y-79576443D01*
X113162011Y-79492779D01*
X113162009Y-79492778D01*
X113126271Y-79463448D01*
X113024814Y-79380186D01*
X112941552Y-79278729D01*
X112912222Y-79242991D01*
X112902652Y-79225087D01*
X112828557Y-79086467D01*
X112811384Y-79029853D01*
X112777037Y-78916627D01*
X112759641Y-78740000D01*
X112777037Y-78563373D01*
X112828557Y-78393534D01*
X112828557Y-78393533D01*
X112912221Y-78237011D01*
X112912222Y-78237009D01*
X112961930Y-78176440D01*
X113024814Y-78099814D01*
X113126271Y-78016552D01*
X113162009Y-77987222D01*
X113179913Y-77977652D01*
X113318533Y-77903557D01*
X113375147Y-77886384D01*
X113488373Y-77852037D01*
X113554557Y-77845519D01*
X113620740Y-77839000D01*
X113709260Y-77839000D01*
X113775443Y-77845519D01*
X113775443Y-77845519D01*
G37*
G36*
X200457000Y-78176440D02*
X195275000Y-78176440D01*
X195275000Y-76574440D01*
X200457000Y-76574440D01*
X200457000Y-78176440D01*
X200457000Y-78176440D01*
G37*
G36*
X113775442Y-75305518D02*
X113841627Y-75312037D01*
X113954853Y-75346384D01*
X114011467Y-75363557D01*
X114150087Y-75437652D01*
X114167991Y-75447222D01*
X114203729Y-75476552D01*
X114305186Y-75559814D01*
X114388448Y-75661271D01*
X114417778Y-75697009D01*
X114417779Y-75697011D01*
X114501443Y-75853533D01*
X114501443Y-75853534D01*
X114552963Y-76023373D01*
X114570359Y-76200000D01*
X114552963Y-76376627D01*
X114518616Y-76489853D01*
X114501443Y-76546467D01*
X114427348Y-76685087D01*
X114417778Y-76702991D01*
X114388448Y-76738729D01*
X114305186Y-76840186D01*
X114203729Y-76923448D01*
X114167991Y-76952778D01*
X114167989Y-76952779D01*
X114011467Y-77036443D01*
X113954853Y-77053616D01*
X113841627Y-77087963D01*
X113775442Y-77094482D01*
X113709260Y-77101000D01*
X113620740Y-77101000D01*
X113554558Y-77094482D01*
X113488373Y-77087963D01*
X113375147Y-77053616D01*
X113318533Y-77036443D01*
X113162011Y-76952779D01*
X113162009Y-76952778D01*
X113126271Y-76923448D01*
X113024814Y-76840186D01*
X112941552Y-76738729D01*
X112912222Y-76702991D01*
X112902652Y-76685087D01*
X112828557Y-76546467D01*
X112811384Y-76489853D01*
X112777037Y-76376627D01*
X112759641Y-76200000D01*
X112777037Y-76023373D01*
X112828557Y-75853534D01*
X112828557Y-75853533D01*
X112912221Y-75697011D01*
X112912222Y-75697009D01*
X112941552Y-75661271D01*
X113024814Y-75559814D01*
X113126271Y-75476552D01*
X113162009Y-75447222D01*
X113179913Y-75437652D01*
X113318533Y-75363557D01*
X113375147Y-75346384D01*
X113488373Y-75312037D01*
X113554558Y-75305518D01*
X113620740Y-75299000D01*
X113709260Y-75299000D01*
X113775442Y-75305518D01*
X113775442Y-75305518D01*
G37*
G36*
X200457000Y-68424000D02*
X195275000Y-68424000D01*
X195275000Y-66822000D01*
X200457000Y-66822000D01*
X200457000Y-68424000D01*
X200457000Y-68424000D01*
G37*
G36*
X200457000Y-59924000D02*
X195275000Y-59924000D01*
X195275000Y-58322000D01*
X200457000Y-58322000D01*
X200457000Y-59924000D01*
X200457000Y-59924000D01*
G37*
G36*
X140601000Y-59321000D02*
X138799000Y-59321000D01*
X138799000Y-57519000D01*
X140601000Y-57519000D01*
X140601000Y-59321000D01*
X140601000Y-59321000D01*
G37*
G36*
X142350443Y-57525519D02*
X142416627Y-57532037D01*
X142529853Y-57566384D01*
X142586467Y-57583557D01*
X142725087Y-57657652D01*
X142742991Y-57667222D01*
X142778729Y-57696552D01*
X142880186Y-57779814D01*
X142963448Y-57881271D01*
X142992778Y-57917009D01*
X142992779Y-57917011D01*
X143076443Y-58073533D01*
X143076443Y-58073534D01*
X143127963Y-58243373D01*
X143145359Y-58420000D01*
X143127963Y-58596627D01*
X143093616Y-58709853D01*
X143076443Y-58766467D01*
X143002348Y-58905087D01*
X142992778Y-58922991D01*
X142963448Y-58958729D01*
X142880186Y-59060186D01*
X142778729Y-59143448D01*
X142742991Y-59172778D01*
X142742989Y-59172779D01*
X142586467Y-59256443D01*
X142529853Y-59273616D01*
X142416627Y-59307963D01*
X142350442Y-59314482D01*
X142284260Y-59321000D01*
X142195740Y-59321000D01*
X142129558Y-59314482D01*
X142063373Y-59307963D01*
X141950147Y-59273616D01*
X141893533Y-59256443D01*
X141737011Y-59172779D01*
X141737009Y-59172778D01*
X141701271Y-59143448D01*
X141599814Y-59060186D01*
X141516552Y-58958729D01*
X141487222Y-58922991D01*
X141477652Y-58905087D01*
X141403557Y-58766467D01*
X141386384Y-58709853D01*
X141352037Y-58596627D01*
X141334641Y-58420000D01*
X141352037Y-58243373D01*
X141403557Y-58073534D01*
X141403557Y-58073533D01*
X141487221Y-57917011D01*
X141487222Y-57917009D01*
X141516552Y-57881271D01*
X141599814Y-57779814D01*
X141701271Y-57696552D01*
X141737009Y-57667222D01*
X141754913Y-57657652D01*
X141893533Y-57583557D01*
X141950147Y-57566384D01*
X142063373Y-57532037D01*
X142129557Y-57525519D01*
X142195740Y-57519000D01*
X142284260Y-57519000D01*
X142350443Y-57525519D01*
X142350443Y-57525519D01*
G37*
G36*
X144890443Y-57525519D02*
X144956627Y-57532037D01*
X145069853Y-57566384D01*
X145126467Y-57583557D01*
X145265087Y-57657652D01*
X145282991Y-57667222D01*
X145318729Y-57696552D01*
X145420186Y-57779814D01*
X145503448Y-57881271D01*
X145532778Y-57917009D01*
X145532779Y-57917011D01*
X145616443Y-58073533D01*
X145616443Y-58073534D01*
X145667963Y-58243373D01*
X145685359Y-58420000D01*
X145667963Y-58596627D01*
X145633616Y-58709853D01*
X145616443Y-58766467D01*
X145542348Y-58905087D01*
X145532778Y-58922991D01*
X145503448Y-58958729D01*
X145420186Y-59060186D01*
X145318729Y-59143448D01*
X145282991Y-59172778D01*
X145282989Y-59172779D01*
X145126467Y-59256443D01*
X145069853Y-59273616D01*
X144956627Y-59307963D01*
X144890442Y-59314482D01*
X144824260Y-59321000D01*
X144735740Y-59321000D01*
X144669558Y-59314482D01*
X144603373Y-59307963D01*
X144490147Y-59273616D01*
X144433533Y-59256443D01*
X144277011Y-59172779D01*
X144277009Y-59172778D01*
X144241271Y-59143448D01*
X144139814Y-59060186D01*
X144056552Y-58958729D01*
X144027222Y-58922991D01*
X144017652Y-58905087D01*
X143943557Y-58766467D01*
X143926384Y-58709853D01*
X143892037Y-58596627D01*
X143874641Y-58420000D01*
X143892037Y-58243373D01*
X143943557Y-58073534D01*
X143943557Y-58073533D01*
X144027221Y-57917011D01*
X144027222Y-57917009D01*
X144056552Y-57881271D01*
X144139814Y-57779814D01*
X144241271Y-57696552D01*
X144277009Y-57667222D01*
X144294913Y-57657652D01*
X144433533Y-57583557D01*
X144490147Y-57566384D01*
X144603373Y-57532037D01*
X144669557Y-57525519D01*
X144735740Y-57519000D01*
X144824260Y-57519000D01*
X144890443Y-57525519D01*
X144890443Y-57525519D01*
G37*
G36*
X112951202Y-50543781D02*
X113226606Y-50598562D01*
X113745455Y-50813476D01*
X114209259Y-51123380D01*
X114212410Y-51125486D01*
X114609514Y-51522590D01*
X114609516Y-51522593D01*
X114921524Y-51989545D01*
X115136438Y-52508394D01*
X115246000Y-53059201D01*
X115246000Y-53620799D01*
X115136438Y-54171606D01*
X114921524Y-54690455D01*
X114611620Y-55154259D01*
X114609514Y-55157410D01*
X114212410Y-55554514D01*
X114212407Y-55554516D01*
X113745455Y-55866524D01*
X113226606Y-56081438D01*
X112675800Y-56191000D01*
X112114200Y-56191000D01*
X111563394Y-56081438D01*
X111044545Y-55866524D01*
X110577593Y-55554516D01*
X110577590Y-55554514D01*
X110180486Y-55157410D01*
X110178380Y-55154259D01*
X109868476Y-54690455D01*
X109653562Y-54171606D01*
X109544000Y-53620799D01*
X109544000Y-53059201D01*
X109653562Y-52508394D01*
X109868476Y-51989545D01*
X110180484Y-51522593D01*
X110180486Y-51522590D01*
X110577590Y-51125486D01*
X110580741Y-51123380D01*
X111044545Y-50813476D01*
X111563394Y-50598562D01*
X112114200Y-50489000D01*
X112675800Y-50489000D01*
X112951202Y-50543781D01*
X112951202Y-50543781D01*
G37*
G36*
X196136202Y-50543781D02*
X196411606Y-50598562D01*
X196930455Y-50813476D01*
X197394259Y-51123380D01*
X197397410Y-51125486D01*
X197794514Y-51522590D01*
X197794516Y-51522593D01*
X198106524Y-51989545D01*
X198321438Y-52508394D01*
X198431000Y-53059201D01*
X198431000Y-53620799D01*
X198321438Y-54171606D01*
X198106524Y-54690455D01*
X197796620Y-55154259D01*
X197794514Y-55157410D01*
X197397410Y-55554514D01*
X197397407Y-55554516D01*
X196930455Y-55866524D01*
X196411606Y-56081438D01*
X195860800Y-56191000D01*
X195299200Y-56191000D01*
X194748394Y-56081438D01*
X194229545Y-55866524D01*
X193762593Y-55554516D01*
X193762590Y-55554514D01*
X193365486Y-55157410D01*
X193363380Y-55154259D01*
X193053476Y-54690455D01*
X192838562Y-54171606D01*
X192729000Y-53620799D01*
X192729000Y-53059201D01*
X192838562Y-52508394D01*
X193053476Y-51989545D01*
X193365484Y-51522593D01*
X193365486Y-51522590D01*
X193762590Y-51125486D01*
X193765741Y-51123380D01*
X194229545Y-50813476D01*
X194748394Y-50598562D01*
X195299200Y-50489000D01*
X195860800Y-50489000D01*
X196136202Y-50543781D01*
X196136202Y-50543781D01*
G37*
G36*
X121646000Y-54026000D02*
X120044000Y-54026000D01*
X120044000Y-48844000D01*
X121646000Y-48844000D01*
X121646000Y-54026000D01*
X121646000Y-54026000D01*
G37*
G36*
X130146000Y-54026000D02*
X128544000Y-54026000D01*
X128544000Y-48844000D01*
X130146000Y-48844000D01*
X130146000Y-54026000D01*
X130146000Y-54026000D01*
G37*
M02*
