G04 #@! TF.GenerationSoftware,KiCad,Pcbnew,(6.0.0-rc1-dev-1154-gcbd13c712)*
G04 #@! TF.CreationDate,2018-11-28T14:30:39+08:00*
G04 #@! TF.ProjectId,8330_EVA,38333330-5f45-4564-912e-6b696361645f,rev?*
G04 #@! TF.SameCoordinates,Original*
G04 #@! TF.FileFunction,Copper,L2,Bot*
G04 #@! TF.FilePolarity,Positive*
%FSLAX46Y46*%
G04 Gerber Fmt 4.6, Leading zero omitted, Abs format (unit mm)*
G04 Created by KiCad (PCBNEW (6.0.0-rc1-dev-1154-gcbd13c712)) date 2018/11/28 14:30:39*
%MOMM*%
%LPD*%
G01*
G04 APERTURE LIST*
G04 #@! TA.AperFunction,SMDPad,CuDef*
%ADD10R,1.500000X5.080000*%
G04 #@! TD*
G04 #@! TA.AperFunction,ComponentPad*
%ADD11O,1.700000X1.700000*%
G04 #@! TD*
G04 #@! TA.AperFunction,ComponentPad*
%ADD12R,1.700000X1.700000*%
G04 #@! TD*
G04 #@! TA.AperFunction,SMDPad,CuDef*
%ADD13R,5.080000X1.500000*%
G04 #@! TD*
G04 #@! TA.AperFunction,ComponentPad*
%ADD14C,5.600000*%
G04 #@! TD*
G04 #@! TA.AperFunction,ViaPad*
%ADD15C,0.800000*%
G04 #@! TD*
G04 #@! TA.AperFunction,Conductor*
%ADD16C,0.300000*%
G04 #@! TD*
G04 #@! TA.AperFunction,Conductor*
%ADD17C,0.250000*%
G04 #@! TD*
G04 #@! TA.AperFunction,Conductor*
%ADD18C,0.254000*%
G04 #@! TD*
G04 APERTURE END LIST*
D10*
G04 #@! TO.P,J2,2*
G04 #@! TO.N,Earth*
X129345000Y-51435000D03*
X120845000Y-51435000D03*
G04 #@! TD*
D11*
G04 #@! TO.P,J3,3*
G04 #@! TO.N,/VCA/VEE_-5V*
X113665000Y-76200000D03*
G04 #@! TO.P,J3,2*
G04 #@! TO.N,Earth*
X113665000Y-78740000D03*
D12*
G04 #@! TO.P,J3,1*
G04 #@! TO.N,/DAC/VCC_+5V*
X113665000Y-81280000D03*
G04 #@! TD*
D13*
G04 #@! TO.P,J4,2*
G04 #@! TO.N,Earth*
X197866000Y-85875440D03*
X197866000Y-77375440D03*
G04 #@! TD*
G04 #@! TO.P,J5,2*
G04 #@! TO.N,Earth*
X197866000Y-59123000D03*
X197866000Y-67623000D03*
G04 #@! TD*
D12*
G04 #@! TO.P,J6,1*
G04 #@! TO.N,Earth*
X139700000Y-58420000D03*
D11*
G04 #@! TO.P,J6,2*
G04 #@! TO.N,Net-(J6-Pad2)*
X142240000Y-58420000D03*
G04 #@! TO.P,J6,3*
G04 #@! TO.N,Net-(C25-Pad1)*
X144780000Y-58420000D03*
G04 #@! TD*
D14*
G04 #@! TO.P,REF\002A\002A,1*
G04 #@! TO.N,N/C*
X112395000Y-53340000D03*
G04 #@! TD*
G04 #@! TO.P,REF\002A\002A,1*
G04 #@! TO.N,N/C*
X112395000Y-121920000D03*
G04 #@! TD*
G04 #@! TO.P,REF\002A\002A,1*
G04 #@! TO.N,N/C*
X195580000Y-53340000D03*
G04 #@! TD*
G04 #@! TO.P,REF\002A\002A,1*
G04 #@! TO.N,N/C*
X195580000Y-121920000D03*
G04 #@! TD*
D15*
G04 #@! TO.N,Earth*
X137160000Y-82804000D03*
X142748000Y-82550000D03*
X147320000Y-82296000D03*
X135890000Y-91440000D03*
X139192000Y-91186000D03*
X136652000Y-64770000D03*
X139192000Y-64770000D03*
X143510000Y-65024000D03*
X145034000Y-69342000D03*
X129032000Y-67310000D03*
X140335000Y-83820000D03*
X147955000Y-84455000D03*
X121920000Y-85090000D03*
X124460000Y-85090000D03*
X127000000Y-85090000D03*
X137160000Y-76835000D03*
X149225000Y-76835000D03*
X116840000Y-67945000D03*
X119380000Y-67945000D03*
X121920000Y-67945000D03*
X138684000Y-94488000D03*
X145288000Y-95758000D03*
X123444000Y-95250000D03*
X142875000Y-111760000D03*
X142875000Y-113665000D03*
X142875000Y-104140000D03*
X133985000Y-104140000D03*
X140970000Y-104775000D03*
X154850000Y-97155000D03*
G04 #@! TO.N,/USB2SPI/VCCIO*
X139700000Y-115570000D03*
X160020000Y-111760000D03*
G04 #@! TO.N,/USB2SPI/MPSSE_SCK*
X151765000Y-86360000D03*
X148590000Y-86360000D03*
G04 #@! TO.N,/DAC/VCC_+5V*
X131445000Y-69850000D03*
G04 #@! TO.N,Net-(J6-Pad2)*
X140716000Y-61976000D03*
X140716000Y-70612000D03*
G04 #@! TD*
D16*
G04 #@! TO.N,/USB2SPI/VCCIO*
X139700000Y-115570000D02*
X140335000Y-114935000D01*
X140335000Y-114935000D02*
X156845000Y-114935000D01*
X156845000Y-114935000D02*
X160020000Y-111760000D01*
D17*
G04 #@! TO.N,/USB2SPI/MPSSE_SCK*
X151765000Y-86360000D02*
X148590000Y-86360000D01*
D16*
G04 #@! TO.N,/DAC/VCC_+5V*
X113665000Y-81280000D02*
X128905000Y-81280000D01*
X128905000Y-81280000D02*
X130175000Y-81280000D01*
X131445000Y-80010000D02*
X131445000Y-69850000D01*
X130175000Y-81280000D02*
X131445000Y-80010000D01*
G04 #@! TO.N,Net-(J6-Pad2)*
X140716000Y-61976000D02*
X140716000Y-70612000D01*
G04 #@! TD*
D18*
G04 #@! TO.N,Earth*
G36*
X119460000Y-51149250D02*
X119618750Y-51308000D01*
X120718000Y-51308000D01*
X120718000Y-51288000D01*
X120972000Y-51288000D01*
X120972000Y-51308000D01*
X122071250Y-51308000D01*
X122230000Y-51149250D01*
X122230000Y-48920000D01*
X127960000Y-48920000D01*
X127960000Y-51149250D01*
X128118750Y-51308000D01*
X129218000Y-51308000D01*
X129218000Y-51288000D01*
X129472000Y-51288000D01*
X129472000Y-51308000D01*
X130571250Y-51308000D01*
X130730000Y-51149250D01*
X130730000Y-48920000D01*
X200635001Y-48920000D01*
X200635001Y-57780536D01*
X200532310Y-57738000D01*
X198151750Y-57738000D01*
X197993000Y-57896750D01*
X197993000Y-58996000D01*
X198013000Y-58996000D01*
X198013000Y-59250000D01*
X197993000Y-59250000D01*
X197993000Y-60349250D01*
X198151750Y-60508000D01*
X200532310Y-60508000D01*
X200635001Y-60465464D01*
X200635001Y-66280536D01*
X200532310Y-66238000D01*
X198151750Y-66238000D01*
X197993000Y-66396750D01*
X197993000Y-67496000D01*
X198013000Y-67496000D01*
X198013000Y-67750000D01*
X197993000Y-67750000D01*
X197993000Y-68849250D01*
X198151750Y-69008000D01*
X200532310Y-69008000D01*
X200635001Y-68965464D01*
X200635001Y-76032976D01*
X200532310Y-75990440D01*
X198151750Y-75990440D01*
X197993000Y-76149190D01*
X197993000Y-77248440D01*
X198013000Y-77248440D01*
X198013000Y-77502440D01*
X197993000Y-77502440D01*
X197993000Y-78601690D01*
X198151750Y-78760440D01*
X200532310Y-78760440D01*
X200635001Y-78717904D01*
X200635001Y-84532976D01*
X200532310Y-84490440D01*
X198151750Y-84490440D01*
X197993000Y-84649190D01*
X197993000Y-85748440D01*
X198013000Y-85748440D01*
X198013000Y-86002440D01*
X197993000Y-86002440D01*
X197993000Y-87101690D01*
X198151750Y-87260440D01*
X200532310Y-87260440D01*
X200635001Y-87217904D01*
X200635000Y-128880000D01*
X107340000Y-128880000D01*
X107340000Y-121236736D01*
X108960000Y-121236736D01*
X108960000Y-122603264D01*
X109482947Y-123865771D01*
X110449229Y-124832053D01*
X111711736Y-125355000D01*
X113078264Y-125355000D01*
X114340771Y-124832053D01*
X115307053Y-123865771D01*
X115680481Y-122964234D01*
X149065000Y-122964234D01*
X149065000Y-123415766D01*
X149237793Y-123832926D01*
X149557074Y-124152207D01*
X149974234Y-124325000D01*
X150425766Y-124325000D01*
X150842926Y-124152207D01*
X151162207Y-123832926D01*
X151335000Y-123415766D01*
X151335000Y-122964234D01*
X153465000Y-122964234D01*
X153465000Y-123415766D01*
X153637793Y-123832926D01*
X153957074Y-124152207D01*
X154374234Y-124325000D01*
X154825766Y-124325000D01*
X155242926Y-124152207D01*
X155562207Y-123832926D01*
X155735000Y-123415766D01*
X155735000Y-122964234D01*
X155562207Y-122547074D01*
X155242926Y-122227793D01*
X154825766Y-122055000D01*
X154374234Y-122055000D01*
X153957074Y-122227793D01*
X153637793Y-122547074D01*
X153465000Y-122964234D01*
X151335000Y-122964234D01*
X151162207Y-122547074D01*
X150842926Y-122227793D01*
X150425766Y-122055000D01*
X149974234Y-122055000D01*
X149557074Y-122227793D01*
X149237793Y-122547074D01*
X149065000Y-122964234D01*
X115680481Y-122964234D01*
X115830000Y-122603264D01*
X115830000Y-121236736D01*
X192145000Y-121236736D01*
X192145000Y-122603264D01*
X192667947Y-123865771D01*
X193634229Y-124832053D01*
X194896736Y-125355000D01*
X196263264Y-125355000D01*
X197525771Y-124832053D01*
X198492053Y-123865771D01*
X199015000Y-122603264D01*
X199015000Y-121236736D01*
X198492053Y-119974229D01*
X197525771Y-119007947D01*
X196263264Y-118485000D01*
X194896736Y-118485000D01*
X193634229Y-119007947D01*
X192667947Y-119974229D01*
X192145000Y-121236736D01*
X115830000Y-121236736D01*
X115307053Y-119974229D01*
X114340771Y-119007947D01*
X113078264Y-118485000D01*
X111711736Y-118485000D01*
X110449229Y-119007947D01*
X109482947Y-119974229D01*
X108960000Y-121236736D01*
X107340000Y-121236736D01*
X107340000Y-115364126D01*
X138665000Y-115364126D01*
X138665000Y-115775874D01*
X138822569Y-116156280D01*
X139113720Y-116447431D01*
X139494126Y-116605000D01*
X139905874Y-116605000D01*
X140286280Y-116447431D01*
X140577431Y-116156280D01*
X140735000Y-115775874D01*
X140735000Y-115720000D01*
X156767688Y-115720000D01*
X156845000Y-115735378D01*
X156922312Y-115720000D01*
X156922316Y-115720000D01*
X157151292Y-115674454D01*
X157410953Y-115500953D01*
X157454749Y-115435408D01*
X160095158Y-112795000D01*
X160225874Y-112795000D01*
X160606280Y-112637431D01*
X160897431Y-112346280D01*
X161055000Y-111965874D01*
X161055000Y-111554126D01*
X160897431Y-111173720D01*
X160606280Y-110882569D01*
X160225874Y-110725000D01*
X159814126Y-110725000D01*
X159433720Y-110882569D01*
X159142569Y-111173720D01*
X158985000Y-111554126D01*
X158985000Y-111684842D01*
X156519843Y-114150000D01*
X140412312Y-114150000D01*
X140335000Y-114134622D01*
X140257688Y-114150000D01*
X140257684Y-114150000D01*
X140028708Y-114195546D01*
X139769047Y-114369047D01*
X139725251Y-114434592D01*
X139624843Y-114535000D01*
X139494126Y-114535000D01*
X139113720Y-114692569D01*
X138822569Y-114983720D01*
X138665000Y-115364126D01*
X107340000Y-115364126D01*
X107340000Y-86154126D01*
X147555000Y-86154126D01*
X147555000Y-86565874D01*
X147712569Y-86946280D01*
X148003720Y-87237431D01*
X148384126Y-87395000D01*
X148795874Y-87395000D01*
X149176280Y-87237431D01*
X149293711Y-87120000D01*
X151061289Y-87120000D01*
X151178720Y-87237431D01*
X151559126Y-87395000D01*
X151970874Y-87395000D01*
X152351280Y-87237431D01*
X152642431Y-86946280D01*
X152800000Y-86565874D01*
X152800000Y-86161190D01*
X194691000Y-86161190D01*
X194691000Y-86751749D01*
X194787673Y-86985138D01*
X194966301Y-87163767D01*
X195199690Y-87260440D01*
X197580250Y-87260440D01*
X197739000Y-87101690D01*
X197739000Y-86002440D01*
X194849750Y-86002440D01*
X194691000Y-86161190D01*
X152800000Y-86161190D01*
X152800000Y-86154126D01*
X152642431Y-85773720D01*
X152351280Y-85482569D01*
X151970874Y-85325000D01*
X151559126Y-85325000D01*
X151178720Y-85482569D01*
X151061289Y-85600000D01*
X149293711Y-85600000D01*
X149176280Y-85482569D01*
X148795874Y-85325000D01*
X148384126Y-85325000D01*
X148003720Y-85482569D01*
X147712569Y-85773720D01*
X147555000Y-86154126D01*
X107340000Y-86154126D01*
X107340000Y-84999131D01*
X194691000Y-84999131D01*
X194691000Y-85589690D01*
X194849750Y-85748440D01*
X197739000Y-85748440D01*
X197739000Y-84649190D01*
X197580250Y-84490440D01*
X195199690Y-84490440D01*
X194966301Y-84587113D01*
X194787673Y-84765742D01*
X194691000Y-84999131D01*
X107340000Y-84999131D01*
X107340000Y-80430000D01*
X112167560Y-80430000D01*
X112167560Y-82130000D01*
X112216843Y-82377765D01*
X112357191Y-82587809D01*
X112567235Y-82728157D01*
X112815000Y-82777440D01*
X114515000Y-82777440D01*
X114762765Y-82728157D01*
X114972809Y-82587809D01*
X115113157Y-82377765D01*
X115162440Y-82130000D01*
X115162440Y-82065000D01*
X130097688Y-82065000D01*
X130175000Y-82080378D01*
X130252312Y-82065000D01*
X130252316Y-82065000D01*
X130481292Y-82019454D01*
X130740953Y-81845953D01*
X130784749Y-81780408D01*
X131945411Y-80619747D01*
X132010953Y-80575953D01*
X132054747Y-80510411D01*
X132054749Y-80510409D01*
X132108476Y-80430000D01*
X132184454Y-80316292D01*
X132230000Y-80087316D01*
X132230000Y-80087312D01*
X132245378Y-80010001D01*
X132230000Y-79932690D01*
X132230000Y-77661190D01*
X194691000Y-77661190D01*
X194691000Y-78251749D01*
X194787673Y-78485138D01*
X194966301Y-78663767D01*
X195199690Y-78760440D01*
X197580250Y-78760440D01*
X197739000Y-78601690D01*
X197739000Y-77502440D01*
X194849750Y-77502440D01*
X194691000Y-77661190D01*
X132230000Y-77661190D01*
X132230000Y-76499131D01*
X194691000Y-76499131D01*
X194691000Y-77089690D01*
X194849750Y-77248440D01*
X197739000Y-77248440D01*
X197739000Y-76149190D01*
X197580250Y-75990440D01*
X195199690Y-75990440D01*
X194966301Y-76087113D01*
X194787673Y-76265742D01*
X194691000Y-76499131D01*
X132230000Y-76499131D01*
X132230000Y-70528711D01*
X132322431Y-70436280D01*
X132480000Y-70055874D01*
X132480000Y-69644126D01*
X132322431Y-69263720D01*
X132031280Y-68972569D01*
X131650874Y-68815000D01*
X131239126Y-68815000D01*
X130858720Y-68972569D01*
X130567569Y-69263720D01*
X130410000Y-69644126D01*
X130410000Y-70055874D01*
X130567569Y-70436280D01*
X130660001Y-70528712D01*
X130660000Y-79684842D01*
X129849843Y-80495000D01*
X115162440Y-80495000D01*
X115162440Y-80430000D01*
X115113157Y-80182235D01*
X114972809Y-79972191D01*
X114762765Y-79831843D01*
X114659292Y-79811261D01*
X114936645Y-79506924D01*
X115106476Y-79096890D01*
X114985155Y-78867000D01*
X113792000Y-78867000D01*
X113792000Y-78887000D01*
X113538000Y-78887000D01*
X113538000Y-78867000D01*
X112344845Y-78867000D01*
X112223524Y-79096890D01*
X112393355Y-79506924D01*
X112670708Y-79811261D01*
X112567235Y-79831843D01*
X112357191Y-79972191D01*
X112216843Y-80182235D01*
X112167560Y-80430000D01*
X107340000Y-80430000D01*
X107340000Y-76200000D01*
X112150908Y-76200000D01*
X112266161Y-76779418D01*
X112594375Y-77270625D01*
X112913478Y-77483843D01*
X112783642Y-77544817D01*
X112393355Y-77973076D01*
X112223524Y-78383110D01*
X112344845Y-78613000D01*
X113538000Y-78613000D01*
X113538000Y-78593000D01*
X113792000Y-78593000D01*
X113792000Y-78613000D01*
X114985155Y-78613000D01*
X115106476Y-78383110D01*
X114936645Y-77973076D01*
X114546358Y-77544817D01*
X114416522Y-77483843D01*
X114735625Y-77270625D01*
X115063839Y-76779418D01*
X115179092Y-76200000D01*
X115063839Y-75620582D01*
X114735625Y-75129375D01*
X114244418Y-74801161D01*
X113811256Y-74715000D01*
X113518744Y-74715000D01*
X113085582Y-74801161D01*
X112594375Y-75129375D01*
X112266161Y-75620582D01*
X112150908Y-76200000D01*
X107340000Y-76200000D01*
X107340000Y-61770126D01*
X139681000Y-61770126D01*
X139681000Y-62181874D01*
X139838569Y-62562280D01*
X139931000Y-62654711D01*
X139931001Y-69933288D01*
X139838569Y-70025720D01*
X139681000Y-70406126D01*
X139681000Y-70817874D01*
X139838569Y-71198280D01*
X140129720Y-71489431D01*
X140510126Y-71647000D01*
X140921874Y-71647000D01*
X141302280Y-71489431D01*
X141593431Y-71198280D01*
X141751000Y-70817874D01*
X141751000Y-70406126D01*
X141593431Y-70025720D01*
X141501000Y-69933289D01*
X141501000Y-67908750D01*
X194691000Y-67908750D01*
X194691000Y-68499309D01*
X194787673Y-68732698D01*
X194966301Y-68911327D01*
X195199690Y-69008000D01*
X197580250Y-69008000D01*
X197739000Y-68849250D01*
X197739000Y-67750000D01*
X194849750Y-67750000D01*
X194691000Y-67908750D01*
X141501000Y-67908750D01*
X141501000Y-66746691D01*
X194691000Y-66746691D01*
X194691000Y-67337250D01*
X194849750Y-67496000D01*
X197739000Y-67496000D01*
X197739000Y-66396750D01*
X197580250Y-66238000D01*
X195199690Y-66238000D01*
X194966301Y-66334673D01*
X194787673Y-66513302D01*
X194691000Y-66746691D01*
X141501000Y-66746691D01*
X141501000Y-62654711D01*
X141593431Y-62562280D01*
X141751000Y-62181874D01*
X141751000Y-61770126D01*
X141593431Y-61389720D01*
X141302280Y-61098569D01*
X140921874Y-60941000D01*
X140510126Y-60941000D01*
X140129720Y-61098569D01*
X139838569Y-61389720D01*
X139681000Y-61770126D01*
X107340000Y-61770126D01*
X107340000Y-58705750D01*
X138215000Y-58705750D01*
X138215000Y-59396309D01*
X138311673Y-59629698D01*
X138490301Y-59808327D01*
X138723690Y-59905000D01*
X139414250Y-59905000D01*
X139573000Y-59746250D01*
X139573000Y-58547000D01*
X138373750Y-58547000D01*
X138215000Y-58705750D01*
X107340000Y-58705750D01*
X107340000Y-57443691D01*
X138215000Y-57443691D01*
X138215000Y-58134250D01*
X138373750Y-58293000D01*
X139573000Y-58293000D01*
X139573000Y-57093750D01*
X139827000Y-57093750D01*
X139827000Y-58293000D01*
X139847000Y-58293000D01*
X139847000Y-58547000D01*
X139827000Y-58547000D01*
X139827000Y-59746250D01*
X139985750Y-59905000D01*
X140676310Y-59905000D01*
X140909699Y-59808327D01*
X141088327Y-59629698D01*
X141154904Y-59468967D01*
X141169375Y-59490625D01*
X141660582Y-59818839D01*
X142093744Y-59905000D01*
X142386256Y-59905000D01*
X142819418Y-59818839D01*
X143310625Y-59490625D01*
X143510000Y-59192239D01*
X143709375Y-59490625D01*
X144200582Y-59818839D01*
X144633744Y-59905000D01*
X144926256Y-59905000D01*
X145359418Y-59818839D01*
X145850625Y-59490625D01*
X145905332Y-59408750D01*
X194691000Y-59408750D01*
X194691000Y-59999309D01*
X194787673Y-60232698D01*
X194966301Y-60411327D01*
X195199690Y-60508000D01*
X197580250Y-60508000D01*
X197739000Y-60349250D01*
X197739000Y-59250000D01*
X194849750Y-59250000D01*
X194691000Y-59408750D01*
X145905332Y-59408750D01*
X146178839Y-58999418D01*
X146294092Y-58420000D01*
X146259619Y-58246691D01*
X194691000Y-58246691D01*
X194691000Y-58837250D01*
X194849750Y-58996000D01*
X197739000Y-58996000D01*
X197739000Y-57896750D01*
X197580250Y-57738000D01*
X195199690Y-57738000D01*
X194966301Y-57834673D01*
X194787673Y-58013302D01*
X194691000Y-58246691D01*
X146259619Y-58246691D01*
X146178839Y-57840582D01*
X145850625Y-57349375D01*
X145359418Y-57021161D01*
X144926256Y-56935000D01*
X144633744Y-56935000D01*
X144200582Y-57021161D01*
X143709375Y-57349375D01*
X143510000Y-57647761D01*
X143310625Y-57349375D01*
X142819418Y-57021161D01*
X142386256Y-56935000D01*
X142093744Y-56935000D01*
X141660582Y-57021161D01*
X141169375Y-57349375D01*
X141154904Y-57371033D01*
X141088327Y-57210302D01*
X140909699Y-57031673D01*
X140676310Y-56935000D01*
X139985750Y-56935000D01*
X139827000Y-57093750D01*
X139573000Y-57093750D01*
X139414250Y-56935000D01*
X138723690Y-56935000D01*
X138490301Y-57031673D01*
X138311673Y-57210302D01*
X138215000Y-57443691D01*
X107340000Y-57443691D01*
X107340000Y-52656736D01*
X108960000Y-52656736D01*
X108960000Y-54023264D01*
X109482947Y-55285771D01*
X110449229Y-56252053D01*
X111711736Y-56775000D01*
X113078264Y-56775000D01*
X114340771Y-56252053D01*
X115307053Y-55285771D01*
X115830000Y-54023264D01*
X115830000Y-52656736D01*
X115442303Y-51720750D01*
X119460000Y-51720750D01*
X119460000Y-54101310D01*
X119556673Y-54334699D01*
X119735302Y-54513327D01*
X119968691Y-54610000D01*
X120559250Y-54610000D01*
X120718000Y-54451250D01*
X120718000Y-51562000D01*
X120972000Y-51562000D01*
X120972000Y-54451250D01*
X121130750Y-54610000D01*
X121721309Y-54610000D01*
X121954698Y-54513327D01*
X122133327Y-54334699D01*
X122230000Y-54101310D01*
X122230000Y-51720750D01*
X127960000Y-51720750D01*
X127960000Y-54101310D01*
X128056673Y-54334699D01*
X128235302Y-54513327D01*
X128468691Y-54610000D01*
X129059250Y-54610000D01*
X129218000Y-54451250D01*
X129218000Y-51562000D01*
X129472000Y-51562000D01*
X129472000Y-54451250D01*
X129630750Y-54610000D01*
X130221309Y-54610000D01*
X130454698Y-54513327D01*
X130633327Y-54334699D01*
X130730000Y-54101310D01*
X130730000Y-52656736D01*
X192145000Y-52656736D01*
X192145000Y-54023264D01*
X192667947Y-55285771D01*
X193634229Y-56252053D01*
X194896736Y-56775000D01*
X196263264Y-56775000D01*
X197525771Y-56252053D01*
X198492053Y-55285771D01*
X199015000Y-54023264D01*
X199015000Y-52656736D01*
X198492053Y-51394229D01*
X197525771Y-50427947D01*
X196263264Y-49905000D01*
X194896736Y-49905000D01*
X193634229Y-50427947D01*
X192667947Y-51394229D01*
X192145000Y-52656736D01*
X130730000Y-52656736D01*
X130730000Y-51720750D01*
X130571250Y-51562000D01*
X129472000Y-51562000D01*
X129218000Y-51562000D01*
X128118750Y-51562000D01*
X127960000Y-51720750D01*
X122230000Y-51720750D01*
X122071250Y-51562000D01*
X120972000Y-51562000D01*
X120718000Y-51562000D01*
X119618750Y-51562000D01*
X119460000Y-51720750D01*
X115442303Y-51720750D01*
X115307053Y-51394229D01*
X114340771Y-50427947D01*
X113078264Y-49905000D01*
X111711736Y-49905000D01*
X110449229Y-50427947D01*
X109482947Y-51394229D01*
X108960000Y-52656736D01*
X107340000Y-52656736D01*
X107340000Y-48920000D01*
X119460000Y-48920000D01*
X119460000Y-51149250D01*
X119460000Y-51149250D01*
G37*
X119460000Y-51149250D02*
X119618750Y-51308000D01*
X120718000Y-51308000D01*
X120718000Y-51288000D01*
X120972000Y-51288000D01*
X120972000Y-51308000D01*
X122071250Y-51308000D01*
X122230000Y-51149250D01*
X122230000Y-48920000D01*
X127960000Y-48920000D01*
X127960000Y-51149250D01*
X128118750Y-51308000D01*
X129218000Y-51308000D01*
X129218000Y-51288000D01*
X129472000Y-51288000D01*
X129472000Y-51308000D01*
X130571250Y-51308000D01*
X130730000Y-51149250D01*
X130730000Y-48920000D01*
X200635001Y-48920000D01*
X200635001Y-57780536D01*
X200532310Y-57738000D01*
X198151750Y-57738000D01*
X197993000Y-57896750D01*
X197993000Y-58996000D01*
X198013000Y-58996000D01*
X198013000Y-59250000D01*
X197993000Y-59250000D01*
X197993000Y-60349250D01*
X198151750Y-60508000D01*
X200532310Y-60508000D01*
X200635001Y-60465464D01*
X200635001Y-66280536D01*
X200532310Y-66238000D01*
X198151750Y-66238000D01*
X197993000Y-66396750D01*
X197993000Y-67496000D01*
X198013000Y-67496000D01*
X198013000Y-67750000D01*
X197993000Y-67750000D01*
X197993000Y-68849250D01*
X198151750Y-69008000D01*
X200532310Y-69008000D01*
X200635001Y-68965464D01*
X200635001Y-76032976D01*
X200532310Y-75990440D01*
X198151750Y-75990440D01*
X197993000Y-76149190D01*
X197993000Y-77248440D01*
X198013000Y-77248440D01*
X198013000Y-77502440D01*
X197993000Y-77502440D01*
X197993000Y-78601690D01*
X198151750Y-78760440D01*
X200532310Y-78760440D01*
X200635001Y-78717904D01*
X200635001Y-84532976D01*
X200532310Y-84490440D01*
X198151750Y-84490440D01*
X197993000Y-84649190D01*
X197993000Y-85748440D01*
X198013000Y-85748440D01*
X198013000Y-86002440D01*
X197993000Y-86002440D01*
X197993000Y-87101690D01*
X198151750Y-87260440D01*
X200532310Y-87260440D01*
X200635001Y-87217904D01*
X200635000Y-128880000D01*
X107340000Y-128880000D01*
X107340000Y-121236736D01*
X108960000Y-121236736D01*
X108960000Y-122603264D01*
X109482947Y-123865771D01*
X110449229Y-124832053D01*
X111711736Y-125355000D01*
X113078264Y-125355000D01*
X114340771Y-124832053D01*
X115307053Y-123865771D01*
X115680481Y-122964234D01*
X149065000Y-122964234D01*
X149065000Y-123415766D01*
X149237793Y-123832926D01*
X149557074Y-124152207D01*
X149974234Y-124325000D01*
X150425766Y-124325000D01*
X150842926Y-124152207D01*
X151162207Y-123832926D01*
X151335000Y-123415766D01*
X151335000Y-122964234D01*
X153465000Y-122964234D01*
X153465000Y-123415766D01*
X153637793Y-123832926D01*
X153957074Y-124152207D01*
X154374234Y-124325000D01*
X154825766Y-124325000D01*
X155242926Y-124152207D01*
X155562207Y-123832926D01*
X155735000Y-123415766D01*
X155735000Y-122964234D01*
X155562207Y-122547074D01*
X155242926Y-122227793D01*
X154825766Y-122055000D01*
X154374234Y-122055000D01*
X153957074Y-122227793D01*
X153637793Y-122547074D01*
X153465000Y-122964234D01*
X151335000Y-122964234D01*
X151162207Y-122547074D01*
X150842926Y-122227793D01*
X150425766Y-122055000D01*
X149974234Y-122055000D01*
X149557074Y-122227793D01*
X149237793Y-122547074D01*
X149065000Y-122964234D01*
X115680481Y-122964234D01*
X115830000Y-122603264D01*
X115830000Y-121236736D01*
X192145000Y-121236736D01*
X192145000Y-122603264D01*
X192667947Y-123865771D01*
X193634229Y-124832053D01*
X194896736Y-125355000D01*
X196263264Y-125355000D01*
X197525771Y-124832053D01*
X198492053Y-123865771D01*
X199015000Y-122603264D01*
X199015000Y-121236736D01*
X198492053Y-119974229D01*
X197525771Y-119007947D01*
X196263264Y-118485000D01*
X194896736Y-118485000D01*
X193634229Y-119007947D01*
X192667947Y-119974229D01*
X192145000Y-121236736D01*
X115830000Y-121236736D01*
X115307053Y-119974229D01*
X114340771Y-119007947D01*
X113078264Y-118485000D01*
X111711736Y-118485000D01*
X110449229Y-119007947D01*
X109482947Y-119974229D01*
X108960000Y-121236736D01*
X107340000Y-121236736D01*
X107340000Y-115364126D01*
X138665000Y-115364126D01*
X138665000Y-115775874D01*
X138822569Y-116156280D01*
X139113720Y-116447431D01*
X139494126Y-116605000D01*
X139905874Y-116605000D01*
X140286280Y-116447431D01*
X140577431Y-116156280D01*
X140735000Y-115775874D01*
X140735000Y-115720000D01*
X156767688Y-115720000D01*
X156845000Y-115735378D01*
X156922312Y-115720000D01*
X156922316Y-115720000D01*
X157151292Y-115674454D01*
X157410953Y-115500953D01*
X157454749Y-115435408D01*
X160095158Y-112795000D01*
X160225874Y-112795000D01*
X160606280Y-112637431D01*
X160897431Y-112346280D01*
X161055000Y-111965874D01*
X161055000Y-111554126D01*
X160897431Y-111173720D01*
X160606280Y-110882569D01*
X160225874Y-110725000D01*
X159814126Y-110725000D01*
X159433720Y-110882569D01*
X159142569Y-111173720D01*
X158985000Y-111554126D01*
X158985000Y-111684842D01*
X156519843Y-114150000D01*
X140412312Y-114150000D01*
X140335000Y-114134622D01*
X140257688Y-114150000D01*
X140257684Y-114150000D01*
X140028708Y-114195546D01*
X139769047Y-114369047D01*
X139725251Y-114434592D01*
X139624843Y-114535000D01*
X139494126Y-114535000D01*
X139113720Y-114692569D01*
X138822569Y-114983720D01*
X138665000Y-115364126D01*
X107340000Y-115364126D01*
X107340000Y-86154126D01*
X147555000Y-86154126D01*
X147555000Y-86565874D01*
X147712569Y-86946280D01*
X148003720Y-87237431D01*
X148384126Y-87395000D01*
X148795874Y-87395000D01*
X149176280Y-87237431D01*
X149293711Y-87120000D01*
X151061289Y-87120000D01*
X151178720Y-87237431D01*
X151559126Y-87395000D01*
X151970874Y-87395000D01*
X152351280Y-87237431D01*
X152642431Y-86946280D01*
X152800000Y-86565874D01*
X152800000Y-86161190D01*
X194691000Y-86161190D01*
X194691000Y-86751749D01*
X194787673Y-86985138D01*
X194966301Y-87163767D01*
X195199690Y-87260440D01*
X197580250Y-87260440D01*
X197739000Y-87101690D01*
X197739000Y-86002440D01*
X194849750Y-86002440D01*
X194691000Y-86161190D01*
X152800000Y-86161190D01*
X152800000Y-86154126D01*
X152642431Y-85773720D01*
X152351280Y-85482569D01*
X151970874Y-85325000D01*
X151559126Y-85325000D01*
X151178720Y-85482569D01*
X151061289Y-85600000D01*
X149293711Y-85600000D01*
X149176280Y-85482569D01*
X148795874Y-85325000D01*
X148384126Y-85325000D01*
X148003720Y-85482569D01*
X147712569Y-85773720D01*
X147555000Y-86154126D01*
X107340000Y-86154126D01*
X107340000Y-84999131D01*
X194691000Y-84999131D01*
X194691000Y-85589690D01*
X194849750Y-85748440D01*
X197739000Y-85748440D01*
X197739000Y-84649190D01*
X197580250Y-84490440D01*
X195199690Y-84490440D01*
X194966301Y-84587113D01*
X194787673Y-84765742D01*
X194691000Y-84999131D01*
X107340000Y-84999131D01*
X107340000Y-80430000D01*
X112167560Y-80430000D01*
X112167560Y-82130000D01*
X112216843Y-82377765D01*
X112357191Y-82587809D01*
X112567235Y-82728157D01*
X112815000Y-82777440D01*
X114515000Y-82777440D01*
X114762765Y-82728157D01*
X114972809Y-82587809D01*
X115113157Y-82377765D01*
X115162440Y-82130000D01*
X115162440Y-82065000D01*
X130097688Y-82065000D01*
X130175000Y-82080378D01*
X130252312Y-82065000D01*
X130252316Y-82065000D01*
X130481292Y-82019454D01*
X130740953Y-81845953D01*
X130784749Y-81780408D01*
X131945411Y-80619747D01*
X132010953Y-80575953D01*
X132054747Y-80510411D01*
X132054749Y-80510409D01*
X132108476Y-80430000D01*
X132184454Y-80316292D01*
X132230000Y-80087316D01*
X132230000Y-80087312D01*
X132245378Y-80010001D01*
X132230000Y-79932690D01*
X132230000Y-77661190D01*
X194691000Y-77661190D01*
X194691000Y-78251749D01*
X194787673Y-78485138D01*
X194966301Y-78663767D01*
X195199690Y-78760440D01*
X197580250Y-78760440D01*
X197739000Y-78601690D01*
X197739000Y-77502440D01*
X194849750Y-77502440D01*
X194691000Y-77661190D01*
X132230000Y-77661190D01*
X132230000Y-76499131D01*
X194691000Y-76499131D01*
X194691000Y-77089690D01*
X194849750Y-77248440D01*
X197739000Y-77248440D01*
X197739000Y-76149190D01*
X197580250Y-75990440D01*
X195199690Y-75990440D01*
X194966301Y-76087113D01*
X194787673Y-76265742D01*
X194691000Y-76499131D01*
X132230000Y-76499131D01*
X132230000Y-70528711D01*
X132322431Y-70436280D01*
X132480000Y-70055874D01*
X132480000Y-69644126D01*
X132322431Y-69263720D01*
X132031280Y-68972569D01*
X131650874Y-68815000D01*
X131239126Y-68815000D01*
X130858720Y-68972569D01*
X130567569Y-69263720D01*
X130410000Y-69644126D01*
X130410000Y-70055874D01*
X130567569Y-70436280D01*
X130660001Y-70528712D01*
X130660000Y-79684842D01*
X129849843Y-80495000D01*
X115162440Y-80495000D01*
X115162440Y-80430000D01*
X115113157Y-80182235D01*
X114972809Y-79972191D01*
X114762765Y-79831843D01*
X114659292Y-79811261D01*
X114936645Y-79506924D01*
X115106476Y-79096890D01*
X114985155Y-78867000D01*
X113792000Y-78867000D01*
X113792000Y-78887000D01*
X113538000Y-78887000D01*
X113538000Y-78867000D01*
X112344845Y-78867000D01*
X112223524Y-79096890D01*
X112393355Y-79506924D01*
X112670708Y-79811261D01*
X112567235Y-79831843D01*
X112357191Y-79972191D01*
X112216843Y-80182235D01*
X112167560Y-80430000D01*
X107340000Y-80430000D01*
X107340000Y-76200000D01*
X112150908Y-76200000D01*
X112266161Y-76779418D01*
X112594375Y-77270625D01*
X112913478Y-77483843D01*
X112783642Y-77544817D01*
X112393355Y-77973076D01*
X112223524Y-78383110D01*
X112344845Y-78613000D01*
X113538000Y-78613000D01*
X113538000Y-78593000D01*
X113792000Y-78593000D01*
X113792000Y-78613000D01*
X114985155Y-78613000D01*
X115106476Y-78383110D01*
X114936645Y-77973076D01*
X114546358Y-77544817D01*
X114416522Y-77483843D01*
X114735625Y-77270625D01*
X115063839Y-76779418D01*
X115179092Y-76200000D01*
X115063839Y-75620582D01*
X114735625Y-75129375D01*
X114244418Y-74801161D01*
X113811256Y-74715000D01*
X113518744Y-74715000D01*
X113085582Y-74801161D01*
X112594375Y-75129375D01*
X112266161Y-75620582D01*
X112150908Y-76200000D01*
X107340000Y-76200000D01*
X107340000Y-61770126D01*
X139681000Y-61770126D01*
X139681000Y-62181874D01*
X139838569Y-62562280D01*
X139931000Y-62654711D01*
X139931001Y-69933288D01*
X139838569Y-70025720D01*
X139681000Y-70406126D01*
X139681000Y-70817874D01*
X139838569Y-71198280D01*
X140129720Y-71489431D01*
X140510126Y-71647000D01*
X140921874Y-71647000D01*
X141302280Y-71489431D01*
X141593431Y-71198280D01*
X141751000Y-70817874D01*
X141751000Y-70406126D01*
X141593431Y-70025720D01*
X141501000Y-69933289D01*
X141501000Y-67908750D01*
X194691000Y-67908750D01*
X194691000Y-68499309D01*
X194787673Y-68732698D01*
X194966301Y-68911327D01*
X195199690Y-69008000D01*
X197580250Y-69008000D01*
X197739000Y-68849250D01*
X197739000Y-67750000D01*
X194849750Y-67750000D01*
X194691000Y-67908750D01*
X141501000Y-67908750D01*
X141501000Y-66746691D01*
X194691000Y-66746691D01*
X194691000Y-67337250D01*
X194849750Y-67496000D01*
X197739000Y-67496000D01*
X197739000Y-66396750D01*
X197580250Y-66238000D01*
X195199690Y-66238000D01*
X194966301Y-66334673D01*
X194787673Y-66513302D01*
X194691000Y-66746691D01*
X141501000Y-66746691D01*
X141501000Y-62654711D01*
X141593431Y-62562280D01*
X141751000Y-62181874D01*
X141751000Y-61770126D01*
X141593431Y-61389720D01*
X141302280Y-61098569D01*
X140921874Y-60941000D01*
X140510126Y-60941000D01*
X140129720Y-61098569D01*
X139838569Y-61389720D01*
X139681000Y-61770126D01*
X107340000Y-61770126D01*
X107340000Y-58705750D01*
X138215000Y-58705750D01*
X138215000Y-59396309D01*
X138311673Y-59629698D01*
X138490301Y-59808327D01*
X138723690Y-59905000D01*
X139414250Y-59905000D01*
X139573000Y-59746250D01*
X139573000Y-58547000D01*
X138373750Y-58547000D01*
X138215000Y-58705750D01*
X107340000Y-58705750D01*
X107340000Y-57443691D01*
X138215000Y-57443691D01*
X138215000Y-58134250D01*
X138373750Y-58293000D01*
X139573000Y-58293000D01*
X139573000Y-57093750D01*
X139827000Y-57093750D01*
X139827000Y-58293000D01*
X139847000Y-58293000D01*
X139847000Y-58547000D01*
X139827000Y-58547000D01*
X139827000Y-59746250D01*
X139985750Y-59905000D01*
X140676310Y-59905000D01*
X140909699Y-59808327D01*
X141088327Y-59629698D01*
X141154904Y-59468967D01*
X141169375Y-59490625D01*
X141660582Y-59818839D01*
X142093744Y-59905000D01*
X142386256Y-59905000D01*
X142819418Y-59818839D01*
X143310625Y-59490625D01*
X143510000Y-59192239D01*
X143709375Y-59490625D01*
X144200582Y-59818839D01*
X144633744Y-59905000D01*
X144926256Y-59905000D01*
X145359418Y-59818839D01*
X145850625Y-59490625D01*
X145905332Y-59408750D01*
X194691000Y-59408750D01*
X194691000Y-59999309D01*
X194787673Y-60232698D01*
X194966301Y-60411327D01*
X195199690Y-60508000D01*
X197580250Y-60508000D01*
X197739000Y-60349250D01*
X197739000Y-59250000D01*
X194849750Y-59250000D01*
X194691000Y-59408750D01*
X145905332Y-59408750D01*
X146178839Y-58999418D01*
X146294092Y-58420000D01*
X146259619Y-58246691D01*
X194691000Y-58246691D01*
X194691000Y-58837250D01*
X194849750Y-58996000D01*
X197739000Y-58996000D01*
X197739000Y-57896750D01*
X197580250Y-57738000D01*
X195199690Y-57738000D01*
X194966301Y-57834673D01*
X194787673Y-58013302D01*
X194691000Y-58246691D01*
X146259619Y-58246691D01*
X146178839Y-57840582D01*
X145850625Y-57349375D01*
X145359418Y-57021161D01*
X144926256Y-56935000D01*
X144633744Y-56935000D01*
X144200582Y-57021161D01*
X143709375Y-57349375D01*
X143510000Y-57647761D01*
X143310625Y-57349375D01*
X142819418Y-57021161D01*
X142386256Y-56935000D01*
X142093744Y-56935000D01*
X141660582Y-57021161D01*
X141169375Y-57349375D01*
X141154904Y-57371033D01*
X141088327Y-57210302D01*
X140909699Y-57031673D01*
X140676310Y-56935000D01*
X139985750Y-56935000D01*
X139827000Y-57093750D01*
X139573000Y-57093750D01*
X139414250Y-56935000D01*
X138723690Y-56935000D01*
X138490301Y-57031673D01*
X138311673Y-57210302D01*
X138215000Y-57443691D01*
X107340000Y-57443691D01*
X107340000Y-52656736D01*
X108960000Y-52656736D01*
X108960000Y-54023264D01*
X109482947Y-55285771D01*
X110449229Y-56252053D01*
X111711736Y-56775000D01*
X113078264Y-56775000D01*
X114340771Y-56252053D01*
X115307053Y-55285771D01*
X115830000Y-54023264D01*
X115830000Y-52656736D01*
X115442303Y-51720750D01*
X119460000Y-51720750D01*
X119460000Y-54101310D01*
X119556673Y-54334699D01*
X119735302Y-54513327D01*
X119968691Y-54610000D01*
X120559250Y-54610000D01*
X120718000Y-54451250D01*
X120718000Y-51562000D01*
X120972000Y-51562000D01*
X120972000Y-54451250D01*
X121130750Y-54610000D01*
X121721309Y-54610000D01*
X121954698Y-54513327D01*
X122133327Y-54334699D01*
X122230000Y-54101310D01*
X122230000Y-51720750D01*
X127960000Y-51720750D01*
X127960000Y-54101310D01*
X128056673Y-54334699D01*
X128235302Y-54513327D01*
X128468691Y-54610000D01*
X129059250Y-54610000D01*
X129218000Y-54451250D01*
X129218000Y-51562000D01*
X129472000Y-51562000D01*
X129472000Y-54451250D01*
X129630750Y-54610000D01*
X130221309Y-54610000D01*
X130454698Y-54513327D01*
X130633327Y-54334699D01*
X130730000Y-54101310D01*
X130730000Y-52656736D01*
X192145000Y-52656736D01*
X192145000Y-54023264D01*
X192667947Y-55285771D01*
X193634229Y-56252053D01*
X194896736Y-56775000D01*
X196263264Y-56775000D01*
X197525771Y-56252053D01*
X198492053Y-55285771D01*
X199015000Y-54023264D01*
X199015000Y-52656736D01*
X198492053Y-51394229D01*
X197525771Y-50427947D01*
X196263264Y-49905000D01*
X194896736Y-49905000D01*
X193634229Y-50427947D01*
X192667947Y-51394229D01*
X192145000Y-52656736D01*
X130730000Y-52656736D01*
X130730000Y-51720750D01*
X130571250Y-51562000D01*
X129472000Y-51562000D01*
X129218000Y-51562000D01*
X128118750Y-51562000D01*
X127960000Y-51720750D01*
X122230000Y-51720750D01*
X122071250Y-51562000D01*
X120972000Y-51562000D01*
X120718000Y-51562000D01*
X119618750Y-51562000D01*
X119460000Y-51720750D01*
X115442303Y-51720750D01*
X115307053Y-51394229D01*
X114340771Y-50427947D01*
X113078264Y-49905000D01*
X111711736Y-49905000D01*
X110449229Y-50427947D01*
X109482947Y-51394229D01*
X108960000Y-52656736D01*
X107340000Y-52656736D01*
X107340000Y-48920000D01*
X119460000Y-48920000D01*
X119460000Y-51149250D01*
G04 #@! TD*
M02*
